<mxfile host="app.diagrams.net" modified="2023-05-15T02:45:14.460Z" agent="Mozilla/5.0 (X11; Linux x86_64) AppleWebKit/537.36 (KHTML, like Gecko) Chrome/111.0.0.0 Safari/537.36" etag="75_I3MQ0ceRTz2RGIY0v" version="21.2.9" type="device">
  <diagram id="nAnOtKUittYj3XxeRmRG" name="Page-1">
    <mxGraphModel dx="810" dy="4985" grid="1" gridSize="10" guides="1" tooltips="1" connect="1" arrows="1" fold="1" page="1" pageScale="1" pageWidth="850" pageHeight="1100" math="0" shadow="0">
      <root>
        <mxCell id="0" />
        <mxCell id="1" parent="0" />
        <mxCell id="48" style="edgeStyle=none;html=1;fontSize=12;entryX=0;entryY=0.5;entryDx=0;entryDy=0;" parent="1" source="2" target="49" edge="1">
          <mxGeometry relative="1" as="geometry">
            <mxPoint x="40" y="1240" as="targetPoint" />
            <Array as="points">
              <mxPoint x="40" y="1280" />
            </Array>
          </mxGeometry>
        </mxCell>
        <mxCell id="63" style="edgeStyle=none;html=1;entryX=0;entryY=0.5;entryDx=0;entryDy=0;fontSize=12;" parent="1" source="2" target="62" edge="1">
          <mxGeometry relative="1" as="geometry">
            <Array as="points">
              <mxPoint x="40" y="1520" />
            </Array>
          </mxGeometry>
        </mxCell>
        <mxCell id="95" style="edgeStyle=none;html=1;entryX=0;entryY=0.5;entryDx=0;entryDy=0;fontSize=12;" parent="1" source="2" target="94" edge="1">
          <mxGeometry relative="1" as="geometry">
            <Array as="points">
              <mxPoint x="40" y="2240" />
            </Array>
          </mxGeometry>
        </mxCell>
        <mxCell id="131" style="edgeStyle=none;html=1;entryX=0;entryY=0.5;entryDx=0;entryDy=0;fontSize=12;" parent="1" source="2" target="130" edge="1">
          <mxGeometry relative="1" as="geometry">
            <Array as="points">
              <mxPoint x="40" y="200" />
            </Array>
          </mxGeometry>
        </mxCell>
        <mxCell id="134" style="edgeStyle=none;html=1;entryX=0;entryY=0.5;entryDx=0;entryDy=0;fontSize=12;" parent="1" source="2" target="133" edge="1">
          <mxGeometry relative="1" as="geometry">
            <Array as="points">
              <mxPoint x="40" y="320" />
            </Array>
          </mxGeometry>
        </mxCell>
        <mxCell id="137" style="edgeStyle=none;html=1;entryX=0;entryY=0.5;entryDx=0;entryDy=0;fontSize=12;" parent="1" source="2" target="136" edge="1">
          <mxGeometry relative="1" as="geometry">
            <Array as="points">
              <mxPoint x="40" y="80" />
            </Array>
          </mxGeometry>
        </mxCell>
        <mxCell id="293" style="edgeStyle=none;html=1;entryX=0;entryY=0.5;entryDx=0;entryDy=0;" parent="1" source="2" target="292" edge="1">
          <mxGeometry relative="1" as="geometry">
            <Array as="points">
              <mxPoint x="40" y="-40" />
            </Array>
          </mxGeometry>
        </mxCell>
        <mxCell id="297" style="edgeStyle=none;html=1;entryX=0;entryY=0.5;entryDx=0;entryDy=0;" parent="1" source="2" target="296" edge="1">
          <mxGeometry relative="1" as="geometry">
            <Array as="points">
              <mxPoint x="40" y="-160" />
            </Array>
          </mxGeometry>
        </mxCell>
        <mxCell id="300" style="edgeStyle=none;html=1;entryX=0;entryY=0.5;entryDx=0;entryDy=0;" parent="1" source="2" target="299" edge="1">
          <mxGeometry relative="1" as="geometry">
            <Array as="points">
              <mxPoint x="40" y="-280" />
            </Array>
          </mxGeometry>
        </mxCell>
        <mxCell id="303" style="edgeStyle=none;html=1;entryX=0;entryY=0.5;entryDx=0;entryDy=0;" parent="1" source="2" target="302" edge="1">
          <mxGeometry relative="1" as="geometry">
            <Array as="points">
              <mxPoint x="40" y="-400" />
            </Array>
          </mxGeometry>
        </mxCell>
        <mxCell id="323" style="edgeStyle=none;html=1;entryX=0;entryY=0.5;entryDx=0;entryDy=0;" parent="1" source="2" target="322" edge="1">
          <mxGeometry relative="1" as="geometry">
            <Array as="points">
              <mxPoint x="40" y="-760" />
            </Array>
          </mxGeometry>
        </mxCell>
        <mxCell id="338" style="edgeStyle=none;html=1;entryX=0;entryY=0.5;entryDx=0;entryDy=0;" parent="1" source="2" target="337" edge="1">
          <mxGeometry relative="1" as="geometry">
            <Array as="points">
              <mxPoint x="40" y="-1160" />
            </Array>
          </mxGeometry>
        </mxCell>
        <mxCell id="346" style="edgeStyle=none;html=1;entryX=0;entryY=0.5;entryDx=0;entryDy=0;" parent="1" source="2" target="345" edge="1">
          <mxGeometry relative="1" as="geometry">
            <Array as="points">
              <mxPoint x="40" y="-1400" />
            </Array>
          </mxGeometry>
        </mxCell>
        <mxCell id="356" style="edgeStyle=none;html=1;entryX=0;entryY=0.5;entryDx=0;entryDy=0;" parent="1" source="2" target="355" edge="1">
          <mxGeometry relative="1" as="geometry">
            <Array as="points">
              <mxPoint x="40" y="-1640" />
            </Array>
          </mxGeometry>
        </mxCell>
        <mxCell id="371" style="edgeStyle=none;html=1;entryX=0;entryY=0.5;entryDx=0;entryDy=0;" parent="1" source="2" target="370" edge="1">
          <mxGeometry relative="1" as="geometry">
            <Array as="points">
              <mxPoint x="40" y="-2040" />
            </Array>
          </mxGeometry>
        </mxCell>
        <mxCell id="389" style="edgeStyle=none;html=1;entryX=0;entryY=0.5;entryDx=0;entryDy=0;" parent="1" source="2" target="388" edge="1">
          <mxGeometry relative="1" as="geometry">
            <Array as="points">
              <mxPoint x="40" y="-2440" />
            </Array>
          </mxGeometry>
        </mxCell>
        <mxCell id="407" style="edgeStyle=none;html=1;entryX=0;entryY=0.5;entryDx=0;entryDy=0;" parent="1" source="2" target="406" edge="1">
          <mxGeometry relative="1" as="geometry">
            <Array as="points">
              <mxPoint x="40" y="-2800" />
            </Array>
          </mxGeometry>
        </mxCell>
        <mxCell id="429" style="edgeStyle=none;html=1;entryX=0;entryY=0.5;entryDx=0;entryDy=0;" parent="1" source="2" target="428" edge="1">
          <mxGeometry relative="1" as="geometry">
            <Array as="points">
              <mxPoint x="40" y="-3080" />
            </Array>
          </mxGeometry>
        </mxCell>
        <mxCell id="440" style="edgeStyle=none;html=1;entryX=0;entryY=0.5;entryDx=0;entryDy=0;" parent="1" source="2" target="439" edge="1">
          <mxGeometry relative="1" as="geometry">
            <Array as="points">
              <mxPoint x="40" y="-3360" />
            </Array>
          </mxGeometry>
        </mxCell>
        <mxCell id="455" style="edgeStyle=none;html=1;entryX=0;entryY=0.5;entryDx=0;entryDy=0;" parent="1" source="2" target="448" edge="1">
          <mxGeometry relative="1" as="geometry">
            <Array as="points">
              <mxPoint x="40" y="-3640" />
            </Array>
          </mxGeometry>
        </mxCell>
        <mxCell id="460" style="edgeStyle=none;html=1;entryX=0;entryY=0.5;entryDx=0;entryDy=0;" parent="1" source="2" target="459" edge="1">
          <mxGeometry relative="1" as="geometry">
            <Array as="points">
              <mxPoint x="40" y="-3920" />
            </Array>
          </mxGeometry>
        </mxCell>
        <mxCell id="463" style="edgeStyle=none;html=1;entryX=0;entryY=0.5;entryDx=0;entryDy=0;" parent="1" source="2" target="462" edge="1">
          <mxGeometry relative="1" as="geometry">
            <Array as="points">
              <mxPoint x="40" y="-4080" />
            </Array>
          </mxGeometry>
        </mxCell>
        <mxCell id="e6sotbN7k-MOho8otLU--479" style="edgeStyle=orthogonalEdgeStyle;rounded=0;orthogonalLoop=1;jettySize=auto;html=1;entryX=0;entryY=0.5;entryDx=0;entryDy=0;" parent="1" source="2" target="e6sotbN7k-MOho8otLU--478" edge="1">
          <mxGeometry relative="1" as="geometry" />
        </mxCell>
        <mxCell id="e6sotbN7k-MOho8otLU--485" style="edgeStyle=orthogonalEdgeStyle;rounded=0;orthogonalLoop=1;jettySize=auto;html=1;exitX=1;exitY=1;exitDx=0;exitDy=0;" parent="1" source="2" target="e6sotbN7k-MOho8otLU--484" edge="1">
          <mxGeometry relative="1" as="geometry">
            <Array as="points">
              <mxPoint x="70" y="548" />
              <mxPoint x="70" y="1120" />
            </Array>
          </mxGeometry>
        </mxCell>
        <mxCell id="e6sotbN7k-MOho8otLU--498" style="edgeStyle=orthogonalEdgeStyle;rounded=0;orthogonalLoop=1;jettySize=auto;html=1;exitX=1;exitY=1;exitDx=0;exitDy=0;entryX=0;entryY=0.5;entryDx=0;entryDy=0;" parent="1" source="2" target="e6sotbN7k-MOho8otLU--490" edge="1">
          <mxGeometry relative="1" as="geometry">
            <Array as="points">
              <mxPoint x="70" y="548" />
              <mxPoint x="70" y="720" />
            </Array>
          </mxGeometry>
        </mxCell>
        <mxCell id="duLEwpZsMSmpLzevc7z7-477" style="edgeStyle=orthogonalEdgeStyle;rounded=0;orthogonalLoop=1;jettySize=auto;html=1;exitX=1;exitY=1;exitDx=0;exitDy=0;entryX=0;entryY=0.5;entryDx=0;entryDy=0;" edge="1" parent="1" source="2" target="e6sotbN7k-MOho8otLU--503">
          <mxGeometry relative="1" as="geometry">
            <Array as="points">
              <mxPoint x="70" y="548" />
              <mxPoint x="70" y="840" />
            </Array>
          </mxGeometry>
        </mxCell>
        <mxCell id="2" value="0" style="ellipse;whiteSpace=wrap;html=1;aspect=fixed;" parent="1" vertex="1">
          <mxGeometry y="480" width="80" height="80" as="geometry" />
        </mxCell>
        <mxCell id="52" style="edgeStyle=none;html=1;entryX=0;entryY=0.5;entryDx=0;entryDy=0;fontSize=12;" parent="1" source="49" target="51" edge="1">
          <mxGeometry relative="1" as="geometry" />
        </mxCell>
        <mxCell id="58" style="edgeStyle=none;html=1;entryX=0.5;entryY=1;entryDx=0;entryDy=0;fontSize=12;exitX=0.5;exitY=1;exitDx=0;exitDy=0;entryPerimeter=0;" parent="1" source="49" target="55" edge="1">
          <mxGeometry relative="1" as="geometry">
            <Array as="points">
              <mxPoint x="360" y="1340" />
            </Array>
          </mxGeometry>
        </mxCell>
        <mxCell id="49" value="6" style="ellipse;whiteSpace=wrap;html=1;aspect=fixed;fontSize=12;" parent="1" vertex="1">
          <mxGeometry x="160" y="1240" width="80" height="80" as="geometry" />
        </mxCell>
        <mxCell id="50" value="letter" style="text;html=1;strokeColor=none;fillColor=none;align=center;verticalAlign=middle;whiteSpace=wrap;rounded=0;fontSize=12;" parent="1" vertex="1">
          <mxGeometry x="60" y="1240" width="60" height="30" as="geometry" />
        </mxCell>
        <mxCell id="56" style="edgeStyle=none;html=1;entryX=0;entryY=0.5;entryDx=0;entryDy=0;fontSize=12;" parent="1" source="51" target="55" edge="1">
          <mxGeometry relative="1" as="geometry" />
        </mxCell>
        <mxCell id="51" value="7" style="ellipse;whiteSpace=wrap;html=1;aspect=fixed;fontSize=12;" parent="1" vertex="1">
          <mxGeometry x="320" y="1240" width="80" height="80" as="geometry" />
        </mxCell>
        <mxCell id="53" value="" style="curved=1;endArrow=classic;html=1;exitX=1;exitY=0.5;exitDx=0;exitDy=0;entryX=0.5;entryY=0;entryDx=0;entryDy=0;" parent="1" edge="1">
          <mxGeometry width="50" height="50" relative="1" as="geometry">
            <mxPoint x="401" y="1278" as="sourcePoint" />
            <mxPoint x="361" y="1238" as="targetPoint" />
            <Array as="points">
              <mxPoint x="431" y="1208" />
              <mxPoint x="431" y="1178" />
              <mxPoint x="391" y="1168" />
            </Array>
          </mxGeometry>
        </mxCell>
        <mxCell id="54" value="digit&lt;br&gt;letter" style="text;html=1;align=center;verticalAlign=middle;resizable=0;points=[];autosize=1;strokeColor=none;fillColor=none;" parent="1" vertex="1">
          <mxGeometry x="400" y="1145" width="40" height="30" as="geometry" />
        </mxCell>
        <mxCell id="55" value="203" style="ellipse;whiteSpace=wrap;html=1;aspect=fixed;fontSize=12;fillColor=#60a917;fontColor=#ffffff;strokeColor=#2D7600;" parent="1" vertex="1">
          <mxGeometry x="480" y="1240" width="80" height="80" as="geometry" />
        </mxCell>
        <mxCell id="57" value="digit&lt;br&gt;letter" style="text;html=1;align=center;verticalAlign=middle;resizable=0;points=[];autosize=1;strokeColor=none;fillColor=none;" parent="1" vertex="1">
          <mxGeometry x="260" y="1240" width="40" height="30" as="geometry" />
        </mxCell>
        <mxCell id="59" value="≠ digit&lt;br&gt;≠ letter" style="text;html=1;align=center;verticalAlign=middle;resizable=0;points=[];autosize=1;strokeColor=none;fillColor=none;" parent="1" vertex="1">
          <mxGeometry x="425" y="1240" width="50" height="30" as="geometry" />
        </mxCell>
        <mxCell id="60" value="≠ digit&lt;br&gt;≠ letter" style="text;html=1;align=center;verticalAlign=middle;resizable=0;points=[];autosize=1;strokeColor=none;fillColor=none;" parent="1" vertex="1">
          <mxGeometry x="335" y="1350" width="50" height="30" as="geometry" />
        </mxCell>
        <mxCell id="61" value="&lt;h4&gt;&lt;span style=&quot;font-size: 21px&quot;&gt;id&lt;/span&gt;&lt;/h4&gt;" style="text;html=1;strokeColor=none;fillColor=none;align=center;verticalAlign=middle;whiteSpace=wrap;rounded=0;" parent="1" vertex="1">
          <mxGeometry x="565" y="1265" width="60" height="30" as="geometry" />
        </mxCell>
        <mxCell id="66" style="edgeStyle=none;html=1;fontSize=12;" parent="1" source="62" target="65" edge="1">
          <mxGeometry relative="1" as="geometry" />
        </mxCell>
        <mxCell id="70" style="edgeStyle=none;html=1;entryX=0;entryY=0.5;entryDx=0;entryDy=0;fontSize=12;" parent="1" source="62" target="69" edge="1">
          <mxGeometry relative="1" as="geometry">
            <Array as="points">
              <mxPoint x="200" y="1680" />
            </Array>
          </mxGeometry>
        </mxCell>
        <mxCell id="90" style="edgeStyle=none;html=1;entryX=0;entryY=0.5;entryDx=0;entryDy=0;fontSize=12;" parent="1" source="62" target="89" edge="1">
          <mxGeometry relative="1" as="geometry">
            <Array as="points">
              <mxPoint x="200" y="2000" />
            </Array>
          </mxGeometry>
        </mxCell>
        <mxCell id="62" value="8" style="ellipse;whiteSpace=wrap;html=1;aspect=fixed;fontSize=12;" parent="1" vertex="1">
          <mxGeometry x="160" y="1480" width="80" height="80" as="geometry" />
        </mxCell>
        <mxCell id="64" value="slash (/)" style="text;html=1;strokeColor=none;fillColor=none;align=center;verticalAlign=middle;whiteSpace=wrap;rounded=0;fontSize=12;" parent="1" vertex="1">
          <mxGeometry x="60" y="1480" width="60" height="30" as="geometry" />
        </mxCell>
        <mxCell id="65" value="210" style="ellipse;whiteSpace=wrap;html=1;aspect=fixed;fontSize=12;fillColor=#60a917;fontColor=#ffffff;strokeColor=#2D7600;" parent="1" vertex="1">
          <mxGeometry x="320" y="1480" width="80" height="80" as="geometry" />
        </mxCell>
        <mxCell id="73" style="edgeStyle=none;html=1;entryX=0;entryY=0.5;entryDx=0;entryDy=0;fontSize=12;" parent="1" source="69" target="72" edge="1">
          <mxGeometry relative="1" as="geometry" />
        </mxCell>
        <mxCell id="110" style="edgeStyle=none;html=1;entryX=0.5;entryY=1;entryDx=0;entryDy=0;fontSize=12;exitX=0.5;exitY=1;exitDx=0;exitDy=0;" parent="1" source="69" edge="1">
          <mxGeometry relative="1" as="geometry">
            <Array as="points">
              <mxPoint x="520" y="1740" />
            </Array>
            <mxPoint x="680" y="1720" as="targetPoint" />
          </mxGeometry>
        </mxCell>
        <mxCell id="281" style="edgeStyle=none;html=1;entryX=0.5;entryY=0;entryDx=0;entryDy=0;" parent="1" source="69" target="280" edge="1">
          <mxGeometry relative="1" as="geometry" />
        </mxCell>
        <mxCell id="69" value="9" style="ellipse;whiteSpace=wrap;html=1;aspect=fixed;fontSize=12;" parent="1" vertex="1">
          <mxGeometry x="320" y="1640" width="80" height="80" as="geometry" />
        </mxCell>
        <mxCell id="71" value="slash (/)" style="text;html=1;strokeColor=none;fillColor=none;align=center;verticalAlign=middle;whiteSpace=wrap;rounded=0;fontSize=12;" parent="1" vertex="1">
          <mxGeometry x="220" y="1640" width="60" height="30" as="geometry" />
        </mxCell>
        <mxCell id="78" style="edgeStyle=none;html=1;entryX=0;entryY=0.5;entryDx=0;entryDy=0;fontSize=12;" parent="1" source="72" edge="1">
          <mxGeometry relative="1" as="geometry">
            <mxPoint x="640" y="1680" as="targetPoint" />
          </mxGeometry>
        </mxCell>
        <mxCell id="284" style="edgeStyle=none;html=1;entryX=0.5;entryY=0;entryDx=0;entryDy=0;" parent="1" source="72" target="283" edge="1">
          <mxGeometry relative="1" as="geometry" />
        </mxCell>
        <mxCell id="72" value="10" style="ellipse;whiteSpace=wrap;html=1;aspect=fixed;fontSize=12;" parent="1" vertex="1">
          <mxGeometry x="480" y="1640" width="80" height="80" as="geometry" />
        </mxCell>
        <mxCell id="74" value="letter&lt;br&gt;digit&lt;br&gt;space" style="text;html=1;strokeColor=none;fillColor=none;align=center;verticalAlign=middle;whiteSpace=wrap;rounded=0;fontSize=12;" parent="1" vertex="1">
          <mxGeometry x="410" y="1635" width="60" height="30" as="geometry" />
        </mxCell>
        <mxCell id="75" value="" style="curved=1;endArrow=classic;html=1;exitX=1;exitY=0.5;exitDx=0;exitDy=0;entryX=0.5;entryY=0;entryDx=0;entryDy=0;" parent="1" edge="1">
          <mxGeometry width="50" height="50" relative="1" as="geometry">
            <mxPoint x="560" y="1678" as="sourcePoint" />
            <mxPoint x="520" y="1638" as="targetPoint" />
            <Array as="points">
              <mxPoint x="590" y="1608" />
              <mxPoint x="590" y="1578" />
              <mxPoint x="550" y="1568" />
            </Array>
          </mxGeometry>
        </mxCell>
        <mxCell id="76" value="letter&lt;br&gt;digit&lt;br&gt;space" style="text;html=1;strokeColor=none;fillColor=none;align=center;verticalAlign=middle;whiteSpace=wrap;rounded=0;fontSize=12;" parent="1" vertex="1">
          <mxGeometry x="575" y="1540" width="60" height="30" as="geometry" />
        </mxCell>
        <mxCell id="79" value="slash (/)" style="text;html=1;strokeColor=none;fillColor=none;align=center;verticalAlign=middle;whiteSpace=wrap;rounded=0;fontSize=12;" parent="1" vertex="1">
          <mxGeometry x="575" y="1640" width="60" height="30" as="geometry" />
        </mxCell>
        <mxCell id="86" value="204" style="ellipse;whiteSpace=wrap;html=1;aspect=fixed;fontSize=12;fillColor=#60a917;fontColor=#ffffff;strokeColor=#2D7600;" parent="1" vertex="1">
          <mxGeometry x="800" y="1640" width="80" height="80" as="geometry" />
        </mxCell>
        <mxCell id="98" style="edgeStyle=none;html=1;entryX=0;entryY=0.5;entryDx=0;entryDy=0;fontSize=12;" parent="1" source="89" target="97" edge="1">
          <mxGeometry relative="1" as="geometry" />
        </mxCell>
        <mxCell id="112" style="edgeStyle=none;html=1;entryX=0.5;entryY=1;entryDx=0;entryDy=0;fontSize=12;exitX=0.5;exitY=1;exitDx=0;exitDy=0;" parent="1" source="89" target="101" edge="1">
          <mxGeometry relative="1" as="geometry">
            <Array as="points">
              <mxPoint x="510" y="2070" />
            </Array>
          </mxGeometry>
        </mxCell>
        <mxCell id="89" value="12" style="ellipse;whiteSpace=wrap;html=1;aspect=fixed;fontSize=12;" parent="1" vertex="1">
          <mxGeometry x="320" y="1960" width="80" height="80" as="geometry" />
        </mxCell>
        <mxCell id="91" value="asterisk (*)" style="text;html=1;strokeColor=none;fillColor=none;align=center;verticalAlign=middle;whiteSpace=wrap;rounded=0;fontSize=12;" parent="1" vertex="1">
          <mxGeometry x="225" y="1960" width="60" height="30" as="geometry" />
        </mxCell>
        <mxCell id="93" value="letter&lt;br&gt;digit&lt;br&gt;space" style="text;html=1;strokeColor=none;fillColor=none;align=center;verticalAlign=middle;whiteSpace=wrap;rounded=0;fontSize=12;" parent="1" vertex="1">
          <mxGeometry x="410" y="1960" width="60" height="30" as="geometry" />
        </mxCell>
        <mxCell id="105" style="edgeStyle=none;html=1;entryX=0;entryY=0.5;entryDx=0;entryDy=0;fontSize=12;" parent="1" source="94" target="104" edge="1">
          <mxGeometry relative="1" as="geometry" />
        </mxCell>
        <mxCell id="266" style="edgeStyle=none;html=1;" parent="1" source="94" target="265" edge="1">
          <mxGeometry relative="1" as="geometry" />
        </mxCell>
        <mxCell id="268" style="edgeStyle=none;html=1;entryX=0.5;entryY=1;entryDx=0;entryDy=0;" parent="1" edge="1">
          <mxGeometry relative="1" as="geometry">
            <mxPoint x="200" y="2280" as="sourcePoint" />
            <mxPoint x="520" y="2280" as="targetPoint" />
            <Array as="points">
              <mxPoint x="350" y="2310" />
            </Array>
          </mxGeometry>
        </mxCell>
        <mxCell id="94" value="14" style="ellipse;whiteSpace=wrap;html=1;aspect=fixed;fontSize=12;" parent="1" vertex="1">
          <mxGeometry x="160" y="2200" width="80" height="80" as="geometry" />
        </mxCell>
        <mxCell id="96" value="double quote (&quot;)" style="text;html=1;strokeColor=none;fillColor=none;align=center;verticalAlign=middle;whiteSpace=wrap;rounded=0;fontSize=12;" parent="1" vertex="1">
          <mxGeometry x="70" y="2200" width="60" height="30" as="geometry" />
        </mxCell>
        <mxCell id="102" style="edgeStyle=none;html=1;entryX=0;entryY=0.5;entryDx=0;entryDy=0;fontSize=12;" parent="1" source="97" target="101" edge="1">
          <mxGeometry relative="1" as="geometry" />
        </mxCell>
        <mxCell id="97" value="13" style="ellipse;whiteSpace=wrap;html=1;aspect=fixed;fontSize=12;" parent="1" vertex="1">
          <mxGeometry x="480" y="1960" width="80" height="80" as="geometry" />
        </mxCell>
        <mxCell id="99" value="" style="curved=1;endArrow=classic;html=1;exitX=1;exitY=0.5;exitDx=0;exitDy=0;entryX=0.5;entryY=0;entryDx=0;entryDy=0;" parent="1" edge="1">
          <mxGeometry width="50" height="50" relative="1" as="geometry">
            <mxPoint x="559" y="1999" as="sourcePoint" />
            <mxPoint x="519" y="1959" as="targetPoint" />
            <Array as="points">
              <mxPoint x="589" y="1929" />
              <mxPoint x="589" y="1899" />
              <mxPoint x="549" y="1889" />
            </Array>
          </mxGeometry>
        </mxCell>
        <mxCell id="100" value="letter&lt;br&gt;digit&lt;br&gt;space" style="text;html=1;strokeColor=none;fillColor=none;align=center;verticalAlign=middle;whiteSpace=wrap;rounded=0;fontSize=12;" parent="1" vertex="1">
          <mxGeometry x="560" y="1860" width="60" height="30" as="geometry" />
        </mxCell>
        <mxCell id="101" value="205" style="ellipse;whiteSpace=wrap;html=1;aspect=fixed;fontSize=12;fillColor=#60a917;fontColor=#ffffff;strokeColor=#2D7600;" parent="1" vertex="1">
          <mxGeometry x="640" y="1960" width="80" height="80" as="geometry" />
        </mxCell>
        <mxCell id="103" value="≠ digit&lt;br&gt;≠ letter&lt;br&gt;≠ space" style="text;html=1;align=center;verticalAlign=middle;resizable=0;points=[];autosize=1;strokeColor=none;fillColor=none;" parent="1" vertex="1">
          <mxGeometry x="570" y="2000" width="60" height="50" as="geometry" />
        </mxCell>
        <mxCell id="115" style="edgeStyle=none;html=1;entryX=0;entryY=0.5;entryDx=0;entryDy=0;fontSize=12;" parent="1" source="104" edge="1">
          <mxGeometry relative="1" as="geometry">
            <mxPoint x="480" y="2240" as="targetPoint" />
          </mxGeometry>
        </mxCell>
        <mxCell id="271" style="edgeStyle=none;html=1;entryX=0.5;entryY=0;entryDx=0;entryDy=0;" parent="1" source="104" target="270" edge="1">
          <mxGeometry relative="1" as="geometry" />
        </mxCell>
        <mxCell id="104" value="15" style="ellipse;whiteSpace=wrap;html=1;aspect=fixed;fontSize=12;" parent="1" vertex="1">
          <mxGeometry x="320" y="2200" width="80" height="80" as="geometry" />
        </mxCell>
        <mxCell id="106" value="letter&lt;br&gt;digit&lt;br&gt;space" style="text;html=1;strokeColor=none;fillColor=none;align=center;verticalAlign=middle;whiteSpace=wrap;rounded=0;fontSize=12;" parent="1" vertex="1">
          <mxGeometry x="250" y="2200" width="60" height="30" as="geometry" />
        </mxCell>
        <mxCell id="107" value="" style="curved=1;endArrow=classic;html=1;exitX=1;exitY=0.5;exitDx=0;exitDy=0;entryX=0.5;entryY=0;entryDx=0;entryDy=0;" parent="1" edge="1">
          <mxGeometry width="50" height="50" relative="1" as="geometry">
            <mxPoint x="401" y="2238" as="sourcePoint" />
            <mxPoint x="361" y="2198" as="targetPoint" />
            <Array as="points">
              <mxPoint x="431" y="2168" />
              <mxPoint x="431" y="2138" />
              <mxPoint x="391" y="2128" />
            </Array>
          </mxGeometry>
        </mxCell>
        <mxCell id="108" value="letter&lt;br&gt;digit&lt;br&gt;space" style="text;html=1;strokeColor=none;fillColor=none;align=center;verticalAlign=middle;whiteSpace=wrap;rounded=0;fontSize=12;" parent="1" vertex="1">
          <mxGeometry x="440" y="2130" width="60" height="30" as="geometry" />
        </mxCell>
        <mxCell id="111" value="slash (/)" style="text;html=1;strokeColor=none;fillColor=none;align=center;verticalAlign=middle;whiteSpace=wrap;rounded=0;fontSize=12;" parent="1" vertex="1">
          <mxGeometry x="420" y="1695" width="60" height="30" as="geometry" />
        </mxCell>
        <mxCell id="113" value="≠ digit&lt;br&gt;≠ letter&lt;br&gt;≠ space" style="text;html=1;align=center;verticalAlign=middle;resizable=0;points=[];autosize=1;strokeColor=none;fillColor=none;" parent="1" vertex="1">
          <mxGeometry x="540" y="2070" width="60" height="50" as="geometry" />
        </mxCell>
        <mxCell id="116" value="double quote (&quot;)" style="text;html=1;strokeColor=none;fillColor=none;align=center;verticalAlign=middle;whiteSpace=wrap;rounded=0;fontSize=12;" parent="1" vertex="1">
          <mxGeometry x="415" y="2200" width="60" height="30" as="geometry" />
        </mxCell>
        <mxCell id="117" value="206" style="ellipse;whiteSpace=wrap;html=1;aspect=fixed;fontSize=12;fillColor=#60a917;fontColor=#ffffff;strokeColor=#2D7600;" parent="1" vertex="1">
          <mxGeometry x="480" y="2200" width="80" height="80" as="geometry" />
        </mxCell>
        <mxCell id="124" value="≠ slash(/)&lt;br&gt;≠ astersik (*)" style="text;html=1;align=center;verticalAlign=middle;resizable=0;points=[];autosize=1;strokeColor=none;fillColor=none;fontSize=12;" parent="1" vertex="1">
          <mxGeometry x="240" y="1480" width="80" height="30" as="geometry" />
        </mxCell>
        <mxCell id="125" value="&lt;h4&gt;&lt;span style=&quot;font-size: 21px&quot;&gt;//(letters|space|digit)*//&lt;/span&gt;&lt;/h4&gt;" style="text;html=1;strokeColor=none;fillColor=none;align=center;verticalAlign=middle;whiteSpace=wrap;rounded=0;" parent="1" vertex="1">
          <mxGeometry x="970" y="1665" width="60" height="30" as="geometry" />
        </mxCell>
        <mxCell id="126" value="&lt;h4&gt;&lt;span style=&quot;font-size: 21px&quot;&gt;/*(letters|space|digit)*&lt;/span&gt;&lt;/h4&gt;" style="text;html=1;strokeColor=none;fillColor=none;align=center;verticalAlign=middle;whiteSpace=wrap;rounded=0;" parent="1" vertex="1">
          <mxGeometry x="690" y="1985" width="300" height="30" as="geometry" />
        </mxCell>
        <mxCell id="129" value="&lt;h4&gt;&lt;span style=&quot;font-size: 21px&quot;&gt;&quot;(letter|digit|space)*&quot;&lt;/span&gt;&lt;/h4&gt;" style="text;html=1;strokeColor=none;fillColor=none;align=center;verticalAlign=middle;whiteSpace=wrap;rounded=0;" parent="1" vertex="1">
          <mxGeometry x="520" y="2225" width="300" height="30" as="geometry" />
        </mxCell>
        <mxCell id="130" value="208" style="ellipse;whiteSpace=wrap;html=1;aspect=fixed;fontSize=12;fillColor=#60a917;fontColor=#ffffff;strokeColor=#2D7600;" parent="1" vertex="1">
          <mxGeometry x="160" y="160" width="80" height="80" as="geometry" />
        </mxCell>
        <mxCell id="132" value="+" style="text;html=1;strokeColor=none;fillColor=none;align=center;verticalAlign=middle;whiteSpace=wrap;rounded=0;fontSize=12;" parent="1" vertex="1">
          <mxGeometry x="70" y="210" width="60" height="30" as="geometry" />
        </mxCell>
        <mxCell id="133" value="207" style="ellipse;whiteSpace=wrap;html=1;aspect=fixed;fontSize=12;fillColor=#60a917;fontColor=#ffffff;strokeColor=#2D7600;" parent="1" vertex="1">
          <mxGeometry x="160" y="280" width="80" height="80" as="geometry" />
        </mxCell>
        <mxCell id="135" value="-" style="text;html=1;strokeColor=none;fillColor=none;align=center;verticalAlign=middle;whiteSpace=wrap;rounded=0;fontSize=12;" parent="1" vertex="1">
          <mxGeometry x="70" y="290" width="60" height="30" as="geometry" />
        </mxCell>
        <mxCell id="136" value="209" style="ellipse;whiteSpace=wrap;html=1;aspect=fixed;fontSize=12;fillColor=#60a917;fontColor=#ffffff;strokeColor=#2D7600;" parent="1" vertex="1">
          <mxGeometry x="160" y="40" width="80" height="80" as="geometry" />
        </mxCell>
        <mxCell id="139" value="*" style="text;html=1;strokeColor=none;fillColor=none;align=center;verticalAlign=middle;whiteSpace=wrap;rounded=0;fontSize=12;" parent="1" vertex="1">
          <mxGeometry x="70" y="90" width="60" height="30" as="geometry" />
        </mxCell>
        <mxCell id="265" value="305" style="ellipse;whiteSpace=wrap;html=1;aspect=fixed;fillColor=#a20025;fontColor=#ffffff;strokeColor=#6F0000;" parent="1" vertex="1">
          <mxGeometry x="160" y="2320" width="80" height="80" as="geometry" />
        </mxCell>
        <mxCell id="267" value="≠ digit&lt;br&gt;≠ letter&lt;br&gt;≠ space&lt;br&gt;≠&amp;nbsp;&lt;span&gt;single quote (&quot;)&lt;/span&gt;" style="text;html=1;align=center;verticalAlign=middle;resizable=0;points=[];autosize=1;strokeColor=none;fillColor=none;" parent="1" vertex="1">
          <mxGeometry x="80" y="2270" width="120" height="70" as="geometry" />
        </mxCell>
        <mxCell id="269" value="double quote (&quot;)" style="text;html=1;strokeColor=none;fillColor=none;align=center;verticalAlign=middle;whiteSpace=wrap;rounded=0;fontSize=12;" parent="1" vertex="1">
          <mxGeometry x="255" y="2300" width="60" height="30" as="geometry" />
        </mxCell>
        <mxCell id="270" value="306" style="ellipse;whiteSpace=wrap;html=1;aspect=fixed;fillColor=#a20025;fontColor=#ffffff;strokeColor=#6F0000;" parent="1" vertex="1">
          <mxGeometry x="320" y="2360" width="80" height="80" as="geometry" />
        </mxCell>
        <mxCell id="272" value="≠ digit&lt;br&gt;≠ letter&lt;br&gt;≠ space" style="text;html=1;align=center;verticalAlign=middle;resizable=0;points=[];autosize=1;strokeColor=none;fillColor=none;" parent="1" vertex="1">
          <mxGeometry x="360" y="2310" width="60" height="50" as="geometry" />
        </mxCell>
        <mxCell id="280" value="302" style="ellipse;whiteSpace=wrap;html=1;aspect=fixed;fillColor=#a20025;fontColor=#ffffff;strokeColor=#6F0000;" parent="1" vertex="1">
          <mxGeometry x="320" y="1800" width="80" height="80" as="geometry" />
        </mxCell>
        <mxCell id="282" value="≠ digit&lt;br&gt;≠ letter&lt;br&gt;≠ space" style="text;html=1;align=center;verticalAlign=middle;resizable=0;points=[];autosize=1;strokeColor=none;fillColor=none;" parent="1" vertex="1">
          <mxGeometry x="295" y="1740" width="60" height="50" as="geometry" />
        </mxCell>
        <mxCell id="283" value="303" style="ellipse;whiteSpace=wrap;html=1;aspect=fixed;fillColor=#a20025;fontColor=#ffffff;strokeColor=#6F0000;" parent="1" vertex="1">
          <mxGeometry x="480" y="1800" width="80" height="80" as="geometry" />
        </mxCell>
        <mxCell id="285" value="≠ digit&lt;br&gt;≠ letter&lt;br&gt;≠ space" style="text;html=1;align=center;verticalAlign=middle;resizable=0;points=[];autosize=1;strokeColor=none;fillColor=none;" parent="1" vertex="1">
          <mxGeometry x="530" y="1745" width="60" height="50" as="geometry" />
        </mxCell>
        <mxCell id="286" value="&lt;h4&gt;&lt;font style=&quot;font-size: 21px&quot;&gt;-&lt;/font&gt;&lt;/h4&gt;" style="text;html=1;strokeColor=none;fillColor=none;align=center;verticalAlign=middle;whiteSpace=wrap;rounded=0;" parent="1" vertex="1">
          <mxGeometry x="250" y="305" width="60" height="30" as="geometry" />
        </mxCell>
        <mxCell id="287" value="&lt;h4&gt;&lt;font style=&quot;font-size: 21px&quot;&gt;+&lt;/font&gt;&lt;/h4&gt;" style="text;html=1;strokeColor=none;fillColor=none;align=center;verticalAlign=middle;whiteSpace=wrap;rounded=0;" parent="1" vertex="1">
          <mxGeometry x="250" y="185" width="60" height="30" as="geometry" />
        </mxCell>
        <mxCell id="288" value="&lt;h4&gt;&lt;font style=&quot;font-size: 21px&quot;&gt;*&lt;/font&gt;&lt;/h4&gt;" style="text;html=1;strokeColor=none;fillColor=none;align=center;verticalAlign=middle;whiteSpace=wrap;rounded=0;" parent="1" vertex="1">
          <mxGeometry x="250" y="65" width="60" height="30" as="geometry" />
        </mxCell>
        <mxCell id="292" value="210" style="ellipse;whiteSpace=wrap;html=1;aspect=fixed;fillColor=#60a917;fontColor=#ffffff;strokeColor=#2D7600;" parent="1" vertex="1">
          <mxGeometry x="160" y="-80" width="80" height="80" as="geometry" />
        </mxCell>
        <mxCell id="294" value="." style="text;html=1;strokeColor=none;fillColor=none;align=center;verticalAlign=middle;whiteSpace=wrap;rounded=0;fontSize=12;" parent="1" vertex="1">
          <mxGeometry x="70" y="-30" width="60" height="30" as="geometry" />
        </mxCell>
        <mxCell id="295" value="&lt;h4&gt;&lt;font style=&quot;font-size: 21px&quot;&gt;.&lt;/font&gt;&lt;/h4&gt;" style="text;html=1;strokeColor=none;fillColor=none;align=center;verticalAlign=middle;whiteSpace=wrap;rounded=0;" parent="1" vertex="1">
          <mxGeometry x="250" y="-55" width="60" height="30" as="geometry" />
        </mxCell>
        <mxCell id="296" value="211" style="ellipse;whiteSpace=wrap;html=1;aspect=fixed;fillColor=#60a917;fontColor=#ffffff;strokeColor=#2D7600;" parent="1" vertex="1">
          <mxGeometry x="160" y="-200" width="80" height="80" as="geometry" />
        </mxCell>
        <mxCell id="298" value="&lt;h4&gt;&lt;font style=&quot;font-size: 21px&quot;&gt;,&lt;/font&gt;&lt;/h4&gt;" style="text;html=1;strokeColor=none;fillColor=none;align=center;verticalAlign=middle;whiteSpace=wrap;rounded=0;" parent="1" vertex="1">
          <mxGeometry x="250" y="-175" width="60" height="30" as="geometry" />
        </mxCell>
        <mxCell id="299" value="212" style="ellipse;whiteSpace=wrap;html=1;aspect=fixed;fillColor=#60a917;fontColor=#ffffff;strokeColor=#2D7600;" parent="1" vertex="1">
          <mxGeometry x="160" y="-320" width="80" height="80" as="geometry" />
        </mxCell>
        <mxCell id="301" value="&lt;h4&gt;&lt;font style=&quot;font-size: 21px&quot;&gt;;&lt;/font&gt;&lt;/h4&gt;" style="text;html=1;strokeColor=none;fillColor=none;align=center;verticalAlign=middle;whiteSpace=wrap;rounded=0;" parent="1" vertex="1">
          <mxGeometry x="250" y="-300" width="60" height="30" as="geometry" />
        </mxCell>
        <mxCell id="306" style="edgeStyle=none;html=1;" parent="1" source="302" target="305" edge="1">
          <mxGeometry relative="1" as="geometry" />
        </mxCell>
        <mxCell id="308" style="edgeStyle=none;html=1;entryX=0;entryY=0.5;entryDx=0;entryDy=0;" parent="1" source="302" edge="1">
          <mxGeometry relative="1" as="geometry">
            <mxPoint x="320" y="-520" as="targetPoint" />
            <Array as="points">
              <mxPoint x="200" y="-520" />
            </Array>
          </mxGeometry>
        </mxCell>
        <mxCell id="315" style="edgeStyle=none;html=1;entryX=0;entryY=0.5;entryDx=0;entryDy=0;" parent="1" source="302" edge="1">
          <mxGeometry relative="1" as="geometry">
            <mxPoint x="320" y="-640" as="targetPoint" />
            <Array as="points">
              <mxPoint x="200" y="-640" />
            </Array>
          </mxGeometry>
        </mxCell>
        <mxCell id="302" value="16" style="ellipse;whiteSpace=wrap;html=1;aspect=fixed;" parent="1" vertex="1">
          <mxGeometry x="160" y="-440" width="80" height="80" as="geometry" />
        </mxCell>
        <mxCell id="304" value=":" style="text;html=1;strokeColor=none;fillColor=none;align=center;verticalAlign=middle;whiteSpace=wrap;rounded=0;" parent="1" vertex="1">
          <mxGeometry x="80" y="-390" width="60" height="30" as="geometry" />
        </mxCell>
        <mxCell id="305" value="213" style="ellipse;whiteSpace=wrap;html=1;aspect=fixed;fillColor=#60a917;fontColor=#ffffff;strokeColor=#2D7600;" parent="1" vertex="1">
          <mxGeometry x="320" y="-440" width="80" height="80" as="geometry" />
        </mxCell>
        <mxCell id="309" value="=" style="text;html=1;strokeColor=none;fillColor=none;align=center;verticalAlign=middle;whiteSpace=wrap;rounded=0;" parent="1" vertex="1">
          <mxGeometry x="205" y="-500" width="60" height="30" as="geometry" />
        </mxCell>
        <mxCell id="310" value="214" style="ellipse;whiteSpace=wrap;html=1;aspect=fixed;fillColor=#60a917;fontColor=#ffffff;strokeColor=#2D7600;" parent="1" vertex="1">
          <mxGeometry x="320" y="-560" width="80" height="80" as="geometry" />
        </mxCell>
        <mxCell id="313" value="≠ =&lt;br&gt;≠ :" style="text;html=1;align=center;verticalAlign=middle;resizable=0;points=[];autosize=1;strokeColor=none;fillColor=none;" parent="1" vertex="1">
          <mxGeometry x="260" y="-435" width="30" height="30" as="geometry" />
        </mxCell>
        <mxCell id="316" value=":" style="text;html=1;strokeColor=none;fillColor=none;align=center;verticalAlign=middle;whiteSpace=wrap;rounded=0;" parent="1" vertex="1">
          <mxGeometry x="225" y="-630" width="60" height="30" as="geometry" />
        </mxCell>
        <mxCell id="317" value="&lt;h4&gt;&lt;font style=&quot;font-size: 21px&quot;&gt;:=&lt;/font&gt;&lt;/h4&gt;" style="text;html=1;strokeColor=none;fillColor=none;align=center;verticalAlign=middle;whiteSpace=wrap;rounded=0;" parent="1" vertex="1">
          <mxGeometry x="410" y="-535" width="60" height="30" as="geometry" />
        </mxCell>
        <mxCell id="318" value="215" style="ellipse;whiteSpace=wrap;html=1;aspect=fixed;fillColor=#60a917;fontColor=#ffffff;strokeColor=#2D7600;" parent="1" vertex="1">
          <mxGeometry x="320" y="-680" width="80" height="80" as="geometry" />
        </mxCell>
        <mxCell id="321" value="&lt;h4&gt;&lt;font style=&quot;font-size: 21px&quot;&gt;::&lt;/font&gt;&lt;/h4&gt;" style="text;html=1;strokeColor=none;fillColor=none;align=center;verticalAlign=middle;whiteSpace=wrap;rounded=0;" parent="1" vertex="1">
          <mxGeometry x="405" y="-655" width="60" height="30" as="geometry" />
        </mxCell>
        <mxCell id="326" style="edgeStyle=none;html=1;" parent="1" source="322" target="325" edge="1">
          <mxGeometry relative="1" as="geometry" />
        </mxCell>
        <mxCell id="329" style="edgeStyle=none;html=1;" parent="1" source="322" target="328" edge="1">
          <mxGeometry relative="1" as="geometry">
            <Array as="points">
              <mxPoint x="200" y="-880" />
            </Array>
          </mxGeometry>
        </mxCell>
        <mxCell id="322" value="17" style="ellipse;whiteSpace=wrap;html=1;aspect=fixed;" parent="1" vertex="1">
          <mxGeometry x="160" y="-800" width="80" height="80" as="geometry" />
        </mxCell>
        <mxCell id="324" value="!" style="text;html=1;strokeColor=none;fillColor=none;align=center;verticalAlign=middle;whiteSpace=wrap;rounded=0;" parent="1" vertex="1">
          <mxGeometry x="70" y="-750" width="60" height="30" as="geometry" />
        </mxCell>
        <mxCell id="325" value="216" style="ellipse;whiteSpace=wrap;html=1;aspect=fixed;fillColor=#60a917;fontColor=#ffffff;strokeColor=#2D7600;" parent="1" vertex="1">
          <mxGeometry x="320" y="-800" width="80" height="80" as="geometry" />
        </mxCell>
        <mxCell id="327" value="≠ =" style="text;html=1;align=center;verticalAlign=middle;resizable=0;points=[];autosize=1;strokeColor=none;fillColor=none;" parent="1" vertex="1">
          <mxGeometry x="265" y="-750" width="30" height="20" as="geometry" />
        </mxCell>
        <mxCell id="332" style="edgeStyle=none;html=1;entryX=0;entryY=0.5;entryDx=0;entryDy=0;" parent="1" source="328" target="331" edge="1">
          <mxGeometry relative="1" as="geometry" />
        </mxCell>
        <mxCell id="335" style="edgeStyle=none;html=1;" parent="1" source="328" target="334" edge="1">
          <mxGeometry relative="1" as="geometry" />
        </mxCell>
        <mxCell id="328" value="18" style="ellipse;whiteSpace=wrap;html=1;aspect=fixed;" parent="1" vertex="1">
          <mxGeometry x="320" y="-920" width="80" height="80" as="geometry" />
        </mxCell>
        <mxCell id="330" value="=" style="text;html=1;strokeColor=none;fillColor=none;align=center;verticalAlign=middle;whiteSpace=wrap;rounded=0;" parent="1" vertex="1">
          <mxGeometry x="205" y="-850" width="60" height="30" as="geometry" />
        </mxCell>
        <mxCell id="331" value="217" style="ellipse;whiteSpace=wrap;html=1;aspect=fixed;fillColor=#60a917;fontColor=#ffffff;strokeColor=#2D7600;" parent="1" vertex="1">
          <mxGeometry x="480" y="-920" width="80" height="80" as="geometry" />
        </mxCell>
        <mxCell id="333" value="=" style="text;html=1;strokeColor=none;fillColor=none;align=center;verticalAlign=middle;whiteSpace=wrap;rounded=0;" parent="1" vertex="1">
          <mxGeometry x="405" y="-870" width="60" height="30" as="geometry" />
        </mxCell>
        <mxCell id="334" value="307" style="ellipse;whiteSpace=wrap;html=1;aspect=fixed;fillColor=#a20025;fontColor=#ffffff;strokeColor=#6F0000;" parent="1" vertex="1">
          <mxGeometry x="320" y="-1040" width="80" height="80" as="geometry" />
        </mxCell>
        <mxCell id="336" value="≠ =" style="text;html=1;align=center;verticalAlign=middle;resizable=0;points=[];autosize=1;strokeColor=none;fillColor=none;" parent="1" vertex="1">
          <mxGeometry x="370" y="-950" width="30" height="20" as="geometry" />
        </mxCell>
        <mxCell id="341" style="edgeStyle=none;html=1;entryX=0.5;entryY=0;entryDx=0;entryDy=0;" parent="1" source="337" target="340" edge="1">
          <mxGeometry relative="1" as="geometry" />
        </mxCell>
        <mxCell id="344" style="edgeStyle=none;html=1;" parent="1" source="337" target="343" edge="1">
          <mxGeometry relative="1" as="geometry" />
        </mxCell>
        <mxCell id="337" value="19" style="ellipse;whiteSpace=wrap;html=1;aspect=fixed;" parent="1" vertex="1">
          <mxGeometry x="160" y="-1200" width="80" height="80" as="geometry" />
        </mxCell>
        <mxCell id="339" value="&amp;amp;" style="text;html=1;strokeColor=none;fillColor=none;align=center;verticalAlign=middle;whiteSpace=wrap;rounded=0;" parent="1" vertex="1">
          <mxGeometry x="70" y="-1150" width="60" height="30" as="geometry" />
        </mxCell>
        <mxCell id="340" value="308" style="ellipse;whiteSpace=wrap;html=1;aspect=fixed;fillColor=#a20025;fontColor=#ffffff;strokeColor=#6F0000;" parent="1" vertex="1">
          <mxGeometry x="160" y="-1080" width="80" height="80" as="geometry" />
        </mxCell>
        <mxCell id="342" value="≠ &amp;amp;" style="text;html=1;align=center;verticalAlign=middle;resizable=0;points=[];autosize=1;strokeColor=none;fillColor=none;" parent="1" vertex="1">
          <mxGeometry x="210" y="-1110" width="30" height="20" as="geometry" />
        </mxCell>
        <mxCell id="343" value="218" style="ellipse;whiteSpace=wrap;html=1;aspect=fixed;fillColor=#60a917;fontColor=#ffffff;strokeColor=#2D7600;" parent="1" vertex="1">
          <mxGeometry x="320" y="-1200" width="80" height="80" as="geometry" />
        </mxCell>
        <mxCell id="349" style="edgeStyle=none;html=1;entryX=0.5;entryY=0;entryDx=0;entryDy=0;" parent="1" source="345" target="348" edge="1">
          <mxGeometry relative="1" as="geometry" />
        </mxCell>
        <mxCell id="351" style="edgeStyle=none;html=1;entryX=0;entryY=0.5;entryDx=0;entryDy=0;" parent="1" source="345" target="350" edge="1">
          <mxGeometry relative="1" as="geometry" />
        </mxCell>
        <mxCell id="345" value="20" style="ellipse;whiteSpace=wrap;html=1;aspect=fixed;" parent="1" vertex="1">
          <mxGeometry x="160" y="-1440" width="80" height="80" as="geometry" />
        </mxCell>
        <mxCell id="347" value="|" style="text;html=1;strokeColor=none;fillColor=none;align=center;verticalAlign=middle;whiteSpace=wrap;rounded=0;" parent="1" vertex="1">
          <mxGeometry x="70" y="-1390" width="60" height="30" as="geometry" />
        </mxCell>
        <mxCell id="348" value="309" style="ellipse;whiteSpace=wrap;html=1;aspect=fixed;fillColor=#a20025;fontColor=#ffffff;strokeColor=#6F0000;" parent="1" vertex="1">
          <mxGeometry x="160" y="-1320" width="80" height="80" as="geometry" />
        </mxCell>
        <mxCell id="350" value="219" style="ellipse;whiteSpace=wrap;html=1;aspect=fixed;fillColor=#60a917;fontColor=#ffffff;strokeColor=#2D7600;" parent="1" vertex="1">
          <mxGeometry x="320" y="-1440" width="80" height="80" as="geometry" />
        </mxCell>
        <mxCell id="352" value="&amp;amp;" style="text;html=1;strokeColor=none;fillColor=none;align=center;verticalAlign=middle;whiteSpace=wrap;rounded=0;" parent="1" vertex="1">
          <mxGeometry x="255" y="-1150" width="60" height="30" as="geometry" />
        </mxCell>
        <mxCell id="353" value="|" style="text;html=1;strokeColor=none;fillColor=none;align=center;verticalAlign=middle;whiteSpace=wrap;rounded=0;" parent="1" vertex="1">
          <mxGeometry x="250" y="-1390" width="60" height="30" as="geometry" />
        </mxCell>
        <mxCell id="354" value="≠ |" style="text;html=1;align=center;verticalAlign=middle;resizable=0;points=[];autosize=1;strokeColor=none;fillColor=none;" parent="1" vertex="1">
          <mxGeometry x="215" y="-1350" width="30" height="20" as="geometry" />
        </mxCell>
        <mxCell id="359" style="edgeStyle=none;html=1;entryX=0;entryY=0.5;entryDx=0;entryDy=0;" parent="1" source="355" target="358" edge="1">
          <mxGeometry relative="1" as="geometry" />
        </mxCell>
        <mxCell id="361" style="edgeStyle=none;html=1;entryX=0;entryY=0.5;entryDx=0;entryDy=0;" parent="1" source="355" target="360" edge="1">
          <mxGeometry relative="1" as="geometry">
            <Array as="points">
              <mxPoint x="200" y="-1760" />
            </Array>
          </mxGeometry>
        </mxCell>
        <mxCell id="355" value="21" style="ellipse;whiteSpace=wrap;html=1;aspect=fixed;" parent="1" vertex="1">
          <mxGeometry x="160" y="-1680" width="80" height="80" as="geometry" />
        </mxCell>
        <mxCell id="357" value="=" style="text;html=1;strokeColor=none;fillColor=none;align=center;verticalAlign=middle;whiteSpace=wrap;rounded=0;" parent="1" vertex="1">
          <mxGeometry x="70" y="-1630" width="60" height="30" as="geometry" />
        </mxCell>
        <mxCell id="358" value="220" style="ellipse;whiteSpace=wrap;html=1;aspect=fixed;fillColor=#60a917;fontColor=#ffffff;strokeColor=#2D7600;" parent="1" vertex="1">
          <mxGeometry x="320" y="-1680" width="80" height="80" as="geometry" />
        </mxCell>
        <mxCell id="364" style="edgeStyle=none;html=1;entryX=0;entryY=0.5;entryDx=0;entryDy=0;" parent="1" source="360" target="363" edge="1">
          <mxGeometry relative="1" as="geometry" />
        </mxCell>
        <mxCell id="368" style="edgeStyle=none;html=1;entryX=0.5;entryY=1;entryDx=0;entryDy=0;" parent="1" source="360" target="367" edge="1">
          <mxGeometry relative="1" as="geometry" />
        </mxCell>
        <mxCell id="360" value="22" style="ellipse;whiteSpace=wrap;html=1;aspect=fixed;" parent="1" vertex="1">
          <mxGeometry x="320" y="-1800" width="80" height="80" as="geometry" />
        </mxCell>
        <mxCell id="362" value=":" style="text;html=1;strokeColor=none;fillColor=none;align=center;verticalAlign=middle;whiteSpace=wrap;rounded=0;" parent="1" vertex="1">
          <mxGeometry x="225" y="-1750" width="60" height="30" as="geometry" />
        </mxCell>
        <mxCell id="363" value="221" style="ellipse;whiteSpace=wrap;html=1;aspect=fixed;fillColor=#60a917;fontColor=#ffffff;strokeColor=#2D7600;" parent="1" vertex="1">
          <mxGeometry x="480" y="-1800" width="80" height="80" as="geometry" />
        </mxCell>
        <mxCell id="365" value="=" style="text;html=1;strokeColor=none;fillColor=none;align=center;verticalAlign=middle;whiteSpace=wrap;rounded=0;" parent="1" vertex="1">
          <mxGeometry x="410" y="-1750" width="60" height="30" as="geometry" />
        </mxCell>
        <mxCell id="366" value="≠ :" style="text;html=1;align=center;verticalAlign=middle;resizable=0;points=[];autosize=1;strokeColor=none;fillColor=none;" parent="1" vertex="1">
          <mxGeometry x="265" y="-1630" width="30" height="20" as="geometry" />
        </mxCell>
        <mxCell id="367" value="310" style="ellipse;whiteSpace=wrap;html=1;aspect=fixed;fillColor=#a20025;fontColor=#ffffff;strokeColor=#6F0000;" parent="1" vertex="1">
          <mxGeometry x="320" y="-1920" width="80" height="80" as="geometry" />
        </mxCell>
        <mxCell id="369" value="≠ =" style="text;html=1;align=center;verticalAlign=middle;resizable=0;points=[];autosize=1;strokeColor=none;fillColor=none;" parent="1" vertex="1">
          <mxGeometry x="370" y="-1830" width="30" height="20" as="geometry" />
        </mxCell>
        <mxCell id="374" style="edgeStyle=none;html=1;entryX=0;entryY=0.5;entryDx=0;entryDy=0;" parent="1" source="370" target="373" edge="1">
          <mxGeometry relative="1" as="geometry" />
        </mxCell>
        <mxCell id="377" style="edgeStyle=none;html=1;entryX=0;entryY=0.5;entryDx=0;entryDy=0;" parent="1" source="370" target="376" edge="1">
          <mxGeometry relative="1" as="geometry">
            <Array as="points">
              <mxPoint x="200" y="-2160" />
            </Array>
          </mxGeometry>
        </mxCell>
        <mxCell id="383" style="edgeStyle=none;html=1;entryX=0.5;entryY=0;entryDx=0;entryDy=0;" parent="1" source="370" target="382" edge="1">
          <mxGeometry relative="1" as="geometry" />
        </mxCell>
        <mxCell id="370" value="23" style="ellipse;whiteSpace=wrap;html=1;aspect=fixed;" parent="1" vertex="1">
          <mxGeometry x="160" y="-2080" width="80" height="80" as="geometry" />
        </mxCell>
        <mxCell id="372" value="&amp;gt;" style="text;html=1;strokeColor=none;fillColor=none;align=center;verticalAlign=middle;whiteSpace=wrap;rounded=0;" parent="1" vertex="1">
          <mxGeometry x="80" y="-2030" width="60" height="30" as="geometry" />
        </mxCell>
        <mxCell id="373" value="222" style="ellipse;whiteSpace=wrap;html=1;aspect=fixed;fillColor=#60a917;fontColor=#ffffff;strokeColor=#2D7600;" parent="1" vertex="1">
          <mxGeometry x="320" y="-2080" width="80" height="80" as="geometry" />
        </mxCell>
        <mxCell id="375" value="&amp;gt;" style="text;html=1;strokeColor=none;fillColor=none;align=center;verticalAlign=middle;whiteSpace=wrap;rounded=0;" parent="1" vertex="1">
          <mxGeometry x="245" y="-2030" width="60" height="30" as="geometry" />
        </mxCell>
        <mxCell id="380" style="edgeStyle=none;html=1;entryX=0;entryY=0.5;entryDx=0;entryDy=0;" parent="1" source="376" target="379" edge="1">
          <mxGeometry relative="1" as="geometry" />
        </mxCell>
        <mxCell id="386" style="edgeStyle=none;html=1;entryX=0.5;entryY=1;entryDx=0;entryDy=0;" parent="1" source="376" target="385" edge="1">
          <mxGeometry relative="1" as="geometry" />
        </mxCell>
        <mxCell id="376" value="24" style="ellipse;whiteSpace=wrap;html=1;aspect=fixed;" parent="1" vertex="1">
          <mxGeometry x="320" y="-2200" width="80" height="80" as="geometry" />
        </mxCell>
        <mxCell id="378" value=":" style="text;html=1;strokeColor=none;fillColor=none;align=center;verticalAlign=middle;whiteSpace=wrap;rounded=0;" parent="1" vertex="1">
          <mxGeometry x="200" y="-2130" width="60" height="30" as="geometry" />
        </mxCell>
        <mxCell id="379" value="223" style="ellipse;whiteSpace=wrap;html=1;aspect=fixed;fillColor=#60a917;fontColor=#ffffff;strokeColor=#2D7600;" parent="1" vertex="1">
          <mxGeometry x="480" y="-2200" width="80" height="80" as="geometry" />
        </mxCell>
        <mxCell id="381" value="=" style="text;html=1;strokeColor=none;fillColor=none;align=center;verticalAlign=middle;whiteSpace=wrap;rounded=0;" parent="1" vertex="1">
          <mxGeometry x="410" y="-2150" width="60" height="30" as="geometry" />
        </mxCell>
        <mxCell id="382" value="311" style="ellipse;whiteSpace=wrap;html=1;aspect=fixed;fillColor=#a20025;fontColor=#ffffff;strokeColor=#6F0000;" parent="1" vertex="1">
          <mxGeometry x="160" y="-1960" width="80" height="80" as="geometry" />
        </mxCell>
        <mxCell id="384" value="≠ &amp;gt;&lt;br&gt;≠ :" style="text;html=1;align=center;verticalAlign=middle;resizable=0;points=[];autosize=1;strokeColor=none;fillColor=none;" parent="1" vertex="1">
          <mxGeometry x="215" y="-1995" width="30" height="30" as="geometry" />
        </mxCell>
        <mxCell id="385" value="312" style="ellipse;whiteSpace=wrap;html=1;aspect=fixed;fillColor=#a20025;fontColor=#ffffff;strokeColor=#6F0000;" parent="1" vertex="1">
          <mxGeometry x="320" y="-2320" width="80" height="80" as="geometry" />
        </mxCell>
        <mxCell id="387" value="≠ =" style="text;html=1;align=center;verticalAlign=middle;resizable=0;points=[];autosize=1;strokeColor=none;fillColor=none;" parent="1" vertex="1">
          <mxGeometry x="370" y="-2230" width="30" height="20" as="geometry" />
        </mxCell>
        <mxCell id="392" style="edgeStyle=none;html=1;entryX=0;entryY=0.5;entryDx=0;entryDy=0;" parent="1" source="388" target="391" edge="1">
          <mxGeometry relative="1" as="geometry" />
        </mxCell>
        <mxCell id="395" style="edgeStyle=none;html=1;entryX=0.5;entryY=0;entryDx=0;entryDy=0;" parent="1" source="388" target="394" edge="1">
          <mxGeometry relative="1" as="geometry" />
        </mxCell>
        <mxCell id="398" style="edgeStyle=none;html=1;entryX=0;entryY=0.5;entryDx=0;entryDy=0;" parent="1" source="388" target="397" edge="1">
          <mxGeometry relative="1" as="geometry">
            <Array as="points">
              <mxPoint x="200" y="-2560" />
            </Array>
          </mxGeometry>
        </mxCell>
        <mxCell id="388" value="25" style="ellipse;whiteSpace=wrap;html=1;aspect=fixed;" parent="1" vertex="1">
          <mxGeometry x="160" y="-2480" width="80" height="80" as="geometry" />
        </mxCell>
        <mxCell id="390" value="&amp;lt;" style="text;html=1;strokeColor=none;fillColor=none;align=center;verticalAlign=middle;whiteSpace=wrap;rounded=0;" parent="1" vertex="1">
          <mxGeometry x="70" y="-2430" width="60" height="30" as="geometry" />
        </mxCell>
        <mxCell id="391" value="224" style="ellipse;whiteSpace=wrap;html=1;aspect=fixed;fillColor=#60a917;fontColor=#ffffff;strokeColor=#2D7600;" parent="1" vertex="1">
          <mxGeometry x="320" y="-2480" width="80" height="80" as="geometry" />
        </mxCell>
        <mxCell id="393" value="&amp;lt;" style="text;html=1;strokeColor=none;fillColor=none;align=center;verticalAlign=middle;whiteSpace=wrap;rounded=0;" parent="1" vertex="1">
          <mxGeometry x="245" y="-2430" width="60" height="30" as="geometry" />
        </mxCell>
        <mxCell id="394" value="313" style="ellipse;whiteSpace=wrap;html=1;aspect=fixed;fillColor=#a20025;fontColor=#ffffff;strokeColor=#6F0000;" parent="1" vertex="1">
          <mxGeometry x="160" y="-2360" width="80" height="80" as="geometry" />
        </mxCell>
        <mxCell id="396" value="≠ &amp;lt;&lt;br&gt;≠ :" style="text;html=1;align=center;verticalAlign=middle;resizable=0;points=[];autosize=1;strokeColor=none;fillColor=none;" parent="1" vertex="1">
          <mxGeometry x="210" y="-2395" width="40" height="40" as="geometry" />
        </mxCell>
        <mxCell id="401" style="edgeStyle=none;html=1;entryX=0;entryY=0.5;entryDx=0;entryDy=0;" parent="1" source="397" target="400" edge="1">
          <mxGeometry relative="1" as="geometry" />
        </mxCell>
        <mxCell id="404" style="edgeStyle=none;html=1;entryX=0.5;entryY=1;entryDx=0;entryDy=0;" parent="1" source="397" target="403" edge="1">
          <mxGeometry relative="1" as="geometry" />
        </mxCell>
        <mxCell id="397" value="26" style="ellipse;whiteSpace=wrap;html=1;aspect=fixed;" parent="1" vertex="1">
          <mxGeometry x="320" y="-2600" width="80" height="80" as="geometry" />
        </mxCell>
        <mxCell id="399" value=":" style="text;html=1;strokeColor=none;fillColor=none;align=center;verticalAlign=middle;whiteSpace=wrap;rounded=0;" parent="1" vertex="1">
          <mxGeometry x="205" y="-2530" width="60" height="30" as="geometry" />
        </mxCell>
        <mxCell id="400" value="225" style="ellipse;whiteSpace=wrap;html=1;aspect=fixed;fillColor=#60a917;fontColor=#ffffff;strokeColor=#2D7600;" parent="1" vertex="1">
          <mxGeometry x="480" y="-2600" width="80" height="80" as="geometry" />
        </mxCell>
        <mxCell id="402" value="=" style="text;html=1;strokeColor=none;fillColor=none;align=center;verticalAlign=middle;whiteSpace=wrap;rounded=0;" parent="1" vertex="1">
          <mxGeometry x="410" y="-2550" width="60" height="30" as="geometry" />
        </mxCell>
        <mxCell id="403" value="314" style="ellipse;whiteSpace=wrap;html=1;aspect=fixed;fillColor=#a20025;fontColor=#ffffff;strokeColor=#6F0000;" parent="1" vertex="1">
          <mxGeometry x="320" y="-2720" width="80" height="80" as="geometry" />
        </mxCell>
        <mxCell id="405" value="≠ =" style="text;html=1;align=center;verticalAlign=middle;resizable=0;points=[];autosize=1;strokeColor=none;fillColor=none;" parent="1" vertex="1">
          <mxGeometry x="370" y="-2630" width="30" height="20" as="geometry" />
        </mxCell>
        <mxCell id="411" style="edgeStyle=none;html=1;entryX=0;entryY=0.5;entryDx=0;entryDy=0;" parent="1" source="406" target="410" edge="1">
          <mxGeometry relative="1" as="geometry" />
        </mxCell>
        <mxCell id="414" style="edgeStyle=none;html=1;entryX=0;entryY=0.5;entryDx=0;entryDy=0;" parent="1" source="406" target="413" edge="1">
          <mxGeometry relative="1" as="geometry">
            <Array as="points">
              <mxPoint x="200" y="-2920" />
            </Array>
          </mxGeometry>
        </mxCell>
        <mxCell id="406" value="27" style="ellipse;whiteSpace=wrap;html=1;aspect=fixed;" parent="1" vertex="1">
          <mxGeometry x="160" y="-2840" width="80" height="80" as="geometry" />
        </mxCell>
        <mxCell id="409" value="(" style="text;html=1;strokeColor=none;fillColor=none;align=center;verticalAlign=middle;whiteSpace=wrap;rounded=0;" parent="1" vertex="1">
          <mxGeometry x="70" y="-2790" width="60" height="30" as="geometry" />
        </mxCell>
        <mxCell id="410" value="226" style="ellipse;whiteSpace=wrap;html=1;aspect=fixed;fillColor=#60a917;fontColor=#ffffff;strokeColor=#2D7600;" parent="1" vertex="1">
          <mxGeometry x="325" y="-2840" width="80" height="80" as="geometry" />
        </mxCell>
        <mxCell id="412" value="≠ (" style="text;html=1;align=center;verticalAlign=middle;resizable=0;points=[];autosize=1;strokeColor=none;fillColor=none;" parent="1" vertex="1">
          <mxGeometry x="270" y="-2790" width="30" height="20" as="geometry" />
        </mxCell>
        <mxCell id="413" value="227" style="ellipse;whiteSpace=wrap;html=1;aspect=fixed;fillColor=#60a917;fontColor=#ffffff;strokeColor=#2D7600;" parent="1" vertex="1">
          <mxGeometry x="320" y="-2960" width="80" height="80" as="geometry" />
        </mxCell>
        <mxCell id="415" value="(" style="text;html=1;align=center;verticalAlign=middle;resizable=0;points=[];autosize=1;strokeColor=none;fillColor=none;" parent="1" vertex="1">
          <mxGeometry x="225" y="-2900" width="20" height="20" as="geometry" />
        </mxCell>
        <mxCell id="416" value="&lt;h4&gt;&lt;font style=&quot;font-size: 21px&quot;&gt;!==&lt;/font&gt;&lt;/h4&gt;" style="text;html=1;strokeColor=none;fillColor=none;align=center;verticalAlign=middle;whiteSpace=wrap;rounded=0;" parent="1" vertex="1">
          <mxGeometry x="570" y="-895" width="60" height="30" as="geometry" />
        </mxCell>
        <mxCell id="417" value="&lt;h4&gt;&lt;font style=&quot;font-size: 21px&quot;&gt;!&lt;/font&gt;&lt;/h4&gt;" style="text;html=1;strokeColor=none;fillColor=none;align=center;verticalAlign=middle;whiteSpace=wrap;rounded=0;" parent="1" vertex="1">
          <mxGeometry x="410" y="-775" width="60" height="30" as="geometry" />
        </mxCell>
        <mxCell id="418" value="&lt;h4&gt;&lt;font style=&quot;font-size: 21px&quot;&gt;&amp;amp;&amp;amp;&lt;/font&gt;&lt;/h4&gt;" style="text;html=1;strokeColor=none;fillColor=none;align=center;verticalAlign=middle;whiteSpace=wrap;rounded=0;" parent="1" vertex="1">
          <mxGeometry x="415" y="-1175" width="60" height="30" as="geometry" />
        </mxCell>
        <mxCell id="419" value="&lt;h4&gt;&lt;font style=&quot;font-size: 21px&quot;&gt;||&lt;/font&gt;&lt;/h4&gt;" style="text;html=1;strokeColor=none;fillColor=none;align=center;verticalAlign=middle;whiteSpace=wrap;rounded=0;" parent="1" vertex="1">
          <mxGeometry x="410" y="-1415" width="60" height="30" as="geometry" />
        </mxCell>
        <mxCell id="420" value="&lt;h4&gt;&lt;font style=&quot;font-size: 21px&quot;&gt;=&lt;/font&gt;&lt;/h4&gt;" style="text;html=1;strokeColor=none;fillColor=none;align=center;verticalAlign=middle;whiteSpace=wrap;rounded=0;" parent="1" vertex="1">
          <mxGeometry x="415" y="-1655" width="60" height="30" as="geometry" />
        </mxCell>
        <mxCell id="421" value="&lt;h4&gt;&lt;font style=&quot;font-size: 21px&quot;&gt;=:=&lt;/font&gt;&lt;/h4&gt;" style="text;html=1;strokeColor=none;fillColor=none;align=center;verticalAlign=middle;whiteSpace=wrap;rounded=0;" parent="1" vertex="1">
          <mxGeometry x="570" y="-1775" width="60" height="30" as="geometry" />
        </mxCell>
        <mxCell id="422" value="&lt;h4&gt;&lt;font style=&quot;font-size: 21px&quot;&gt;&amp;gt;&amp;gt;&lt;/font&gt;&lt;/h4&gt;" style="text;html=1;strokeColor=none;fillColor=none;align=center;verticalAlign=middle;whiteSpace=wrap;rounded=0;" parent="1" vertex="1">
          <mxGeometry x="415" y="-2055" width="60" height="30" as="geometry" />
        </mxCell>
        <mxCell id="423" value="&lt;h4&gt;&lt;font style=&quot;font-size: 21px&quot;&gt;&amp;gt;:=&lt;/font&gt;&lt;/h4&gt;" style="text;html=1;strokeColor=none;fillColor=none;align=center;verticalAlign=middle;whiteSpace=wrap;rounded=0;" parent="1" vertex="1">
          <mxGeometry x="570" y="-2175" width="60" height="30" as="geometry" />
        </mxCell>
        <mxCell id="424" value="&lt;h4&gt;&lt;font style=&quot;font-size: 21px&quot;&gt;&amp;lt;&amp;lt;&lt;/font&gt;&lt;/h4&gt;" style="text;html=1;strokeColor=none;fillColor=none;align=center;verticalAlign=middle;whiteSpace=wrap;rounded=0;" parent="1" vertex="1">
          <mxGeometry x="405" y="-2455" width="60" height="30" as="geometry" />
        </mxCell>
        <mxCell id="425" value="&lt;h4&gt;&lt;font style=&quot;font-size: 21px&quot;&gt;&amp;lt;:=&lt;/font&gt;&lt;/h4&gt;" style="text;html=1;strokeColor=none;fillColor=none;align=center;verticalAlign=middle;whiteSpace=wrap;rounded=0;" parent="1" vertex="1">
          <mxGeometry x="560" y="-2575" width="60" height="30" as="geometry" />
        </mxCell>
        <mxCell id="426" value="&lt;h4&gt;&lt;font style=&quot;font-size: 21px&quot;&gt;(&lt;/font&gt;&lt;/h4&gt;" style="text;html=1;strokeColor=none;fillColor=none;align=center;verticalAlign=middle;whiteSpace=wrap;rounded=0;" parent="1" vertex="1">
          <mxGeometry x="410" y="-2815" width="60" height="30" as="geometry" />
        </mxCell>
        <mxCell id="427" value="&lt;h4&gt;&lt;font style=&quot;font-size: 21px&quot;&gt;((&lt;/font&gt;&lt;/h4&gt;" style="text;html=1;strokeColor=none;fillColor=none;align=center;verticalAlign=middle;whiteSpace=wrap;rounded=0;" parent="1" vertex="1">
          <mxGeometry x="405" y="-2935" width="60" height="30" as="geometry" />
        </mxCell>
        <mxCell id="432" style="edgeStyle=none;html=1;" parent="1" source="428" target="431" edge="1">
          <mxGeometry relative="1" as="geometry" />
        </mxCell>
        <mxCell id="435" style="edgeStyle=none;html=1;entryX=0;entryY=0.5;entryDx=0;entryDy=0;" parent="1" source="428" target="434" edge="1">
          <mxGeometry relative="1" as="geometry">
            <Array as="points">
              <mxPoint x="200" y="-3200" />
            </Array>
          </mxGeometry>
        </mxCell>
        <mxCell id="428" value="28" style="ellipse;whiteSpace=wrap;html=1;aspect=fixed;" parent="1" vertex="1">
          <mxGeometry x="160" y="-3120" width="80" height="80" as="geometry" />
        </mxCell>
        <mxCell id="430" value=")" style="text;html=1;strokeColor=none;fillColor=none;align=center;verticalAlign=middle;whiteSpace=wrap;rounded=0;" parent="1" vertex="1">
          <mxGeometry x="60" y="-3070" width="60" height="30" as="geometry" />
        </mxCell>
        <mxCell id="431" value="228" style="ellipse;whiteSpace=wrap;html=1;aspect=fixed;fillColor=#60a917;fontColor=#ffffff;strokeColor=#2D7600;" parent="1" vertex="1">
          <mxGeometry x="320" y="-3120" width="80" height="80" as="geometry" />
        </mxCell>
        <mxCell id="433" value="≠ )" style="text;html=1;align=center;verticalAlign=middle;resizable=0;points=[];autosize=1;strokeColor=none;fillColor=none;" parent="1" vertex="1">
          <mxGeometry x="265" y="-3070" width="30" height="20" as="geometry" />
        </mxCell>
        <mxCell id="434" value="229" style="ellipse;whiteSpace=wrap;html=1;aspect=fixed;fillColor=#60a917;fontColor=#ffffff;strokeColor=#2D7600;" parent="1" vertex="1">
          <mxGeometry x="320" y="-3240" width="80" height="80" as="geometry" />
        </mxCell>
        <mxCell id="436" value=")" style="text;html=1;strokeColor=none;fillColor=none;align=center;verticalAlign=middle;whiteSpace=wrap;rounded=0;" parent="1" vertex="1">
          <mxGeometry x="205" y="-3180" width="60" height="30" as="geometry" />
        </mxCell>
        <mxCell id="437" value="&lt;h4&gt;&lt;font style=&quot;font-size: 21px&quot;&gt;)&lt;/font&gt;&lt;/h4&gt;" style="text;html=1;strokeColor=none;fillColor=none;align=center;verticalAlign=middle;whiteSpace=wrap;rounded=0;" parent="1" vertex="1">
          <mxGeometry x="405" y="-3095" width="60" height="30" as="geometry" />
        </mxCell>
        <mxCell id="438" value="&lt;h4&gt;&lt;font style=&quot;font-size: 21px&quot;&gt;))&lt;/font&gt;&lt;/h4&gt;" style="text;html=1;strokeColor=none;fillColor=none;align=center;verticalAlign=middle;whiteSpace=wrap;rounded=0;" parent="1" vertex="1">
          <mxGeometry x="410" y="-3215" width="60" height="30" as="geometry" />
        </mxCell>
        <mxCell id="443" style="edgeStyle=none;html=1;entryX=0;entryY=0.5;entryDx=0;entryDy=0;" parent="1" source="439" target="442" edge="1">
          <mxGeometry relative="1" as="geometry" />
        </mxCell>
        <mxCell id="446" style="edgeStyle=none;html=1;entryX=0.5;entryY=1;entryDx=0;entryDy=0;" parent="1" source="439" target="445" edge="1">
          <mxGeometry relative="1" as="geometry" />
        </mxCell>
        <mxCell id="439" value="29" style="ellipse;whiteSpace=wrap;html=1;aspect=fixed;" parent="1" vertex="1">
          <mxGeometry x="160" y="-3400" width="80" height="80" as="geometry" />
        </mxCell>
        <mxCell id="441" value="{" style="text;html=1;strokeColor=none;fillColor=none;align=center;verticalAlign=middle;whiteSpace=wrap;rounded=0;" parent="1" vertex="1">
          <mxGeometry x="70" y="-3350" width="60" height="30" as="geometry" />
        </mxCell>
        <mxCell id="442" value="230" style="ellipse;whiteSpace=wrap;html=1;aspect=fixed;fillColor=#60a917;fontColor=#ffffff;strokeColor=#2D7600;" parent="1" vertex="1">
          <mxGeometry x="320" y="-3400" width="80" height="80" as="geometry" />
        </mxCell>
        <mxCell id="444" value="{" style="text;html=1;strokeColor=none;fillColor=none;align=center;verticalAlign=middle;whiteSpace=wrap;rounded=0;" parent="1" vertex="1">
          <mxGeometry x="250" y="-3350" width="60" height="30" as="geometry" />
        </mxCell>
        <mxCell id="445" value="315" style="ellipse;whiteSpace=wrap;html=1;aspect=fixed;fillColor=#a20025;fontColor=#ffffff;strokeColor=#6F0000;" parent="1" vertex="1">
          <mxGeometry x="160" y="-3520" width="80" height="80" as="geometry" />
        </mxCell>
        <mxCell id="447" value="≠ {" style="text;html=1;align=center;verticalAlign=middle;resizable=0;points=[];autosize=1;strokeColor=none;fillColor=none;" parent="1" vertex="1">
          <mxGeometry x="210" y="-3430" width="30" height="20" as="geometry" />
        </mxCell>
        <mxCell id="450" style="edgeStyle=none;html=1;entryX=0;entryY=0.5;entryDx=0;entryDy=0;" parent="1" source="448" target="449" edge="1">
          <mxGeometry relative="1" as="geometry" />
        </mxCell>
        <mxCell id="452" style="edgeStyle=none;html=1;entryX=0.5;entryY=1;entryDx=0;entryDy=0;" parent="1" source="448" target="451" edge="1">
          <mxGeometry relative="1" as="geometry" />
        </mxCell>
        <mxCell id="448" value="30" style="ellipse;whiteSpace=wrap;html=1;aspect=fixed;" parent="1" vertex="1">
          <mxGeometry x="160" y="-3680" width="80" height="80" as="geometry" />
        </mxCell>
        <mxCell id="449" value="231" style="ellipse;whiteSpace=wrap;html=1;aspect=fixed;fillColor=#60a917;fontColor=#ffffff;strokeColor=#2D7600;" parent="1" vertex="1">
          <mxGeometry x="320" y="-3680" width="80" height="80" as="geometry" />
        </mxCell>
        <mxCell id="451" value="316" style="ellipse;whiteSpace=wrap;html=1;aspect=fixed;fillColor=#a20025;fontColor=#ffffff;strokeColor=#6F0000;" parent="1" vertex="1">
          <mxGeometry x="160" y="-3800" width="80" height="80" as="geometry" />
        </mxCell>
        <mxCell id="453" value="≠ }" style="text;html=1;align=center;verticalAlign=middle;resizable=0;points=[];autosize=1;strokeColor=none;fillColor=none;" parent="1" vertex="1">
          <mxGeometry x="210" y="-3710" width="30" height="20" as="geometry" />
        </mxCell>
        <mxCell id="454" value="}" style="text;html=1;strokeColor=none;fillColor=none;align=center;verticalAlign=middle;whiteSpace=wrap;rounded=0;" parent="1" vertex="1">
          <mxGeometry x="250" y="-3630" width="60" height="30" as="geometry" />
        </mxCell>
        <mxCell id="456" value="}" style="text;html=1;strokeColor=none;fillColor=none;align=center;verticalAlign=middle;whiteSpace=wrap;rounded=0;" parent="1" vertex="1">
          <mxGeometry x="70" y="-3630" width="60" height="30" as="geometry" />
        </mxCell>
        <mxCell id="457" value="&lt;h4&gt;&lt;font style=&quot;font-size: 21px&quot;&gt;{{&lt;/font&gt;&lt;/h4&gt;" style="text;html=1;strokeColor=none;fillColor=none;align=center;verticalAlign=middle;whiteSpace=wrap;rounded=0;" parent="1" vertex="1">
          <mxGeometry x="400" y="-3375" width="60" height="30" as="geometry" />
        </mxCell>
        <mxCell id="458" value="&lt;h4&gt;&lt;font style=&quot;font-size: 21px&quot;&gt;}}&lt;/font&gt;&lt;/h4&gt;" style="text;html=1;strokeColor=none;fillColor=none;align=center;verticalAlign=middle;whiteSpace=wrap;rounded=0;" parent="1" vertex="1">
          <mxGeometry x="400" y="-3655" width="60" height="30" as="geometry" />
        </mxCell>
        <mxCell id="459" value="232" style="ellipse;whiteSpace=wrap;html=1;aspect=fixed;fillColor=#60a917;fontColor=#ffffff;strokeColor=#2D7600;" parent="1" vertex="1">
          <mxGeometry x="160" y="-3960" width="80" height="80" as="geometry" />
        </mxCell>
        <mxCell id="461" value="[" style="text;html=1;strokeColor=none;fillColor=none;align=center;verticalAlign=middle;whiteSpace=wrap;rounded=0;" parent="1" vertex="1">
          <mxGeometry x="70" y="-3910" width="60" height="30" as="geometry" />
        </mxCell>
        <mxCell id="462" value="233" style="ellipse;whiteSpace=wrap;html=1;aspect=fixed;fillColor=#60a917;fontColor=#ffffff;strokeColor=#2D7600;" parent="1" vertex="1">
          <mxGeometry x="160" y="-4120" width="80" height="80" as="geometry" />
        </mxCell>
        <mxCell id="464" value="]" style="text;html=1;strokeColor=none;fillColor=none;align=center;verticalAlign=middle;whiteSpace=wrap;rounded=0;" parent="1" vertex="1">
          <mxGeometry x="70" y="-4070" width="60" height="30" as="geometry" />
        </mxCell>
        <mxCell id="465" value="&lt;h4&gt;&lt;font style=&quot;font-size: 21px&quot;&gt;[&lt;/font&gt;&lt;/h4&gt;" style="text;html=1;strokeColor=none;fillColor=none;align=center;verticalAlign=middle;whiteSpace=wrap;rounded=0;" parent="1" vertex="1">
          <mxGeometry x="240" y="-3940" width="60" height="30" as="geometry" />
        </mxCell>
        <mxCell id="466" value="&lt;h4&gt;&lt;span style=&quot;font-size: 21px&quot;&gt;]&lt;/span&gt;&lt;/h4&gt;" style="text;html=1;strokeColor=none;fillColor=none;align=center;verticalAlign=middle;whiteSpace=wrap;rounded=0;" parent="1" vertex="1">
          <mxGeometry x="240" y="-4095" width="60" height="30" as="geometry" />
        </mxCell>
        <mxCell id="469" style="edgeStyle=none;html=1;entryX=0;entryY=0.5;entryDx=0;entryDy=0;" parent="1" source="468" target="86" edge="1">
          <mxGeometry relative="1" as="geometry" />
        </mxCell>
        <mxCell id="472" style="edgeStyle=none;html=1;entryX=0.5;entryY=0;entryDx=0;entryDy=0;" parent="1" source="468" target="471" edge="1">
          <mxGeometry relative="1" as="geometry" />
        </mxCell>
        <mxCell id="468" value="11" style="ellipse;whiteSpace=wrap;html=1;aspect=fixed;" parent="1" vertex="1">
          <mxGeometry x="640" y="1640" width="80" height="80" as="geometry" />
        </mxCell>
        <mxCell id="470" value="slash (/)" style="text;html=1;strokeColor=none;fillColor=none;align=center;verticalAlign=middle;whiteSpace=wrap;rounded=0;fontSize=12;" parent="1" vertex="1">
          <mxGeometry x="730" y="1640" width="60" height="30" as="geometry" />
        </mxCell>
        <mxCell id="471" value="304" style="ellipse;whiteSpace=wrap;html=1;aspect=fixed;fillColor=#a20025;fontColor=#ffffff;strokeColor=#6F0000;" parent="1" vertex="1">
          <mxGeometry x="640" y="1800" width="80" height="80" as="geometry" />
        </mxCell>
        <mxCell id="474" value="≠ slash(/)" style="text;html=1;align=center;verticalAlign=middle;resizable=0;points=[];autosize=1;strokeColor=none;fillColor=none;" parent="1" vertex="1">
          <mxGeometry x="685" y="1750" width="60" height="20" as="geometry" />
        </mxCell>
        <mxCell id="475" value="&lt;h4&gt;&lt;span style=&quot;font-size: 21px&quot;&gt;/&lt;/span&gt;&lt;/h4&gt;" style="text;html=1;strokeColor=none;fillColor=none;align=center;verticalAlign=middle;whiteSpace=wrap;rounded=0;" parent="1" vertex="1">
          <mxGeometry x="405" y="1505" width="60" height="30" as="geometry" />
        </mxCell>
        <mxCell id="476" value="," style="text;html=1;strokeColor=none;fillColor=none;align=center;verticalAlign=middle;whiteSpace=wrap;rounded=0;fontSize=12;" parent="1" vertex="1">
          <mxGeometry x="70" y="-150" width="60" height="30" as="geometry" />
        </mxCell>
        <mxCell id="477" value=";" style="text;html=1;strokeColor=none;fillColor=none;align=center;verticalAlign=middle;whiteSpace=wrap;rounded=0;fontSize=12;" parent="1" vertex="1">
          <mxGeometry x="70" y="-270" width="60" height="30" as="geometry" />
        </mxCell>
        <mxCell id="e6sotbN7k-MOho8otLU--482" style="edgeStyle=orthogonalEdgeStyle;rounded=0;orthogonalLoop=1;jettySize=auto;html=1;entryX=0;entryY=0.5;entryDx=0;entryDy=0;" parent="1" source="e6sotbN7k-MOho8otLU--478" target="e6sotbN7k-MOho8otLU--481" edge="1">
          <mxGeometry relative="1" as="geometry" />
        </mxCell>
        <mxCell id="e6sotbN7k-MOho8otLU--491" style="edgeStyle=orthogonalEdgeStyle;rounded=0;orthogonalLoop=1;jettySize=auto;html=1;entryX=0.5;entryY=0;entryDx=0;entryDy=0;" parent="1" source="e6sotbN7k-MOho8otLU--478" target="e6sotbN7k-MOho8otLU--490" edge="1">
          <mxGeometry relative="1" as="geometry" />
        </mxCell>
        <mxCell id="e6sotbN7k-MOho8otLU--478" value="1" style="ellipse;whiteSpace=wrap;html=1;aspect=fixed;" parent="1" vertex="1">
          <mxGeometry x="160" y="480" width="80" height="80" as="geometry" />
        </mxCell>
        <mxCell id="e6sotbN7k-MOho8otLU--480" value="minus (-)" style="text;html=1;align=center;verticalAlign=middle;resizable=0;points=[];autosize=1;strokeColor=none;fillColor=none;" parent="1" vertex="1">
          <mxGeometry x="86" y="490" width="70" height="30" as="geometry" />
        </mxCell>
        <mxCell id="e6sotbN7k-MOho8otLU--481" value="" style="ellipse;whiteSpace=wrap;html=1;aspect=fixed;fillColor=#60a917;fontColor=#ffffff;strokeColor=#2D7600;" parent="1" vertex="1">
          <mxGeometry x="322" y="480" width="80" height="80" as="geometry" />
        </mxCell>
        <mxCell id="e6sotbN7k-MOho8otLU--483" value="&lt;h4&gt;&lt;font style=&quot;font-size: 21px&quot;&gt;-&lt;/font&gt;&lt;/h4&gt;" style="text;html=1;strokeColor=none;fillColor=none;align=center;verticalAlign=middle;whiteSpace=wrap;rounded=0;" parent="1" vertex="1">
          <mxGeometry x="405" y="505" width="60" height="30" as="geometry" />
        </mxCell>
        <mxCell id="e6sotbN7k-MOho8otLU--488" style="edgeStyle=orthogonalEdgeStyle;rounded=0;orthogonalLoop=1;jettySize=auto;html=1;entryX=0;entryY=0.5;entryDx=0;entryDy=0;" parent="1" source="e6sotbN7k-MOho8otLU--484" target="e6sotbN7k-MOho8otLU--487" edge="1">
          <mxGeometry relative="1" as="geometry" />
        </mxCell>
        <mxCell id="e6sotbN7k-MOho8otLU--492" style="edgeStyle=orthogonalEdgeStyle;rounded=0;orthogonalLoop=1;jettySize=auto;html=1;entryX=0.5;entryY=1;entryDx=0;entryDy=0;" parent="1" source="e6sotbN7k-MOho8otLU--484" target="e6sotbN7k-MOho8otLU--490" edge="1">
          <mxGeometry relative="1" as="geometry" />
        </mxCell>
        <mxCell id="e6sotbN7k-MOho8otLU--484" value="3" style="ellipse;whiteSpace=wrap;html=1;aspect=fixed;" parent="1" vertex="1">
          <mxGeometry x="160" y="1080" width="80" height="80" as="geometry" />
        </mxCell>
        <mxCell id="e6sotbN7k-MOho8otLU--486" value="plus (+)" style="text;html=1;align=center;verticalAlign=middle;resizable=0;points=[];autosize=1;strokeColor=none;fillColor=none;" parent="1" vertex="1">
          <mxGeometry x="86" y="1080" width="60" height="30" as="geometry" />
        </mxCell>
        <mxCell id="e6sotbN7k-MOho8otLU--487" value="" style="ellipse;whiteSpace=wrap;html=1;aspect=fixed;fillColor=#60a917;fontColor=#ffffff;strokeColor=#2D7600;" parent="1" vertex="1">
          <mxGeometry x="320" y="1080" width="80" height="80" as="geometry" />
        </mxCell>
        <mxCell id="e6sotbN7k-MOho8otLU--489" value="&lt;h4&gt;&lt;font style=&quot;font-size: 21px&quot;&gt;+&lt;/font&gt;&lt;/h4&gt;" style="text;html=1;strokeColor=none;fillColor=none;align=center;verticalAlign=middle;whiteSpace=wrap;rounded=0;" parent="1" vertex="1">
          <mxGeometry x="405" y="1100" width="60" height="30" as="geometry" />
        </mxCell>
        <mxCell id="e6sotbN7k-MOho8otLU--501" style="edgeStyle=orthogonalEdgeStyle;rounded=0;orthogonalLoop=1;jettySize=auto;html=1;" parent="1" source="e6sotbN7k-MOho8otLU--490" target="e6sotbN7k-MOho8otLU--500" edge="1">
          <mxGeometry relative="1" as="geometry" />
        </mxCell>
        <mxCell id="e6sotbN7k-MOho8otLU--504" style="edgeStyle=orthogonalEdgeStyle;rounded=0;orthogonalLoop=1;jettySize=auto;html=1;exitX=1;exitY=1;exitDx=0;exitDy=0;" parent="1" source="e6sotbN7k-MOho8otLU--490" target="e6sotbN7k-MOho8otLU--503" edge="1">
          <mxGeometry relative="1" as="geometry">
            <Array as="points">
              <mxPoint x="228" y="840" />
            </Array>
          </mxGeometry>
        </mxCell>
        <mxCell id="e6sotbN7k-MOho8otLU--490" value="2" style="ellipse;whiteSpace=wrap;html=1;aspect=fixed;" parent="1" vertex="1">
          <mxGeometry x="160" y="680" width="80" height="80" as="geometry" />
        </mxCell>
        <mxCell id="e6sotbN7k-MOho8otLU--493" value="digit" style="text;html=1;align=center;verticalAlign=middle;resizable=0;points=[];autosize=1;strokeColor=none;fillColor=none;" parent="1" vertex="1">
          <mxGeometry x="141" y="900" width="50" height="30" as="geometry" />
        </mxCell>
        <mxCell id="e6sotbN7k-MOho8otLU--494" value="digit" style="text;html=1;align=center;verticalAlign=middle;resizable=0;points=[];autosize=1;strokeColor=none;fillColor=none;" parent="1" vertex="1">
          <mxGeometry x="140" y="600" width="50" height="30" as="geometry" />
        </mxCell>
        <mxCell id="e6sotbN7k-MOho8otLU--495" value="" style="curved=1;endArrow=classic;html=1;exitX=1;exitY=0.5;exitDx=0;exitDy=0;entryX=0.5;entryY=0;entryDx=0;entryDy=0;" parent="1" edge="1">
          <mxGeometry width="50" height="50" relative="1" as="geometry">
            <mxPoint x="240" y="723" as="sourcePoint" />
            <mxPoint x="200" y="683" as="targetPoint" />
            <Array as="points">
              <mxPoint x="270" y="653" />
              <mxPoint x="270" y="623" />
              <mxPoint x="230" y="613" />
            </Array>
          </mxGeometry>
        </mxCell>
        <mxCell id="e6sotbN7k-MOho8otLU--496" value="digit" style="text;html=1;align=center;verticalAlign=middle;resizable=0;points=[];autosize=1;strokeColor=none;fillColor=none;" parent="1" vertex="1">
          <mxGeometry x="245" y="580" width="50" height="30" as="geometry" />
        </mxCell>
        <mxCell id="e6sotbN7k-MOho8otLU--499" value="digit" style="text;html=1;align=center;verticalAlign=middle;resizable=0;points=[];autosize=1;strokeColor=none;fillColor=none;" parent="1" vertex="1">
          <mxGeometry x="91" y="680" width="50" height="30" as="geometry" />
        </mxCell>
        <mxCell id="e6sotbN7k-MOho8otLU--500" value="" style="ellipse;whiteSpace=wrap;html=1;aspect=fixed;fillColor=#60a917;fontColor=#ffffff;strokeColor=#2D7600;" parent="1" vertex="1">
          <mxGeometry x="320" y="680" width="80" height="80" as="geometry" />
        </mxCell>
        <mxCell id="e6sotbN7k-MOho8otLU--502" value="&lt;h4&gt;&lt;font style=&quot;font-size: 21px&quot;&gt;const int&lt;/font&gt;&lt;/h4&gt;" style="text;html=1;strokeColor=none;fillColor=none;align=center;verticalAlign=middle;whiteSpace=wrap;rounded=0;" parent="1" vertex="1">
          <mxGeometry x="410" y="705" width="90" height="30" as="geometry" />
        </mxCell>
        <mxCell id="e6sotbN7k-MOho8otLU--507" style="edgeStyle=orthogonalEdgeStyle;rounded=0;orthogonalLoop=1;jettySize=auto;html=1;" parent="1" source="e6sotbN7k-MOho8otLU--503" target="e6sotbN7k-MOho8otLU--506" edge="1">
          <mxGeometry relative="1" as="geometry" />
        </mxCell>
        <mxCell id="e6sotbN7k-MOho8otLU--510" style="edgeStyle=orthogonalEdgeStyle;rounded=0;orthogonalLoop=1;jettySize=auto;html=1;entryX=0;entryY=0.5;entryDx=0;entryDy=0;" parent="1" source="e6sotbN7k-MOho8otLU--503" target="e6sotbN7k-MOho8otLU--509" edge="1">
          <mxGeometry relative="1" as="geometry" />
        </mxCell>
        <mxCell id="e6sotbN7k-MOho8otLU--503" value="" style="ellipse;whiteSpace=wrap;html=1;aspect=fixed;" parent="1" vertex="1">
          <mxGeometry x="280" y="800" width="80" height="80" as="geometry" />
        </mxCell>
        <mxCell id="e6sotbN7k-MOho8otLU--505" value="dot(.)" style="text;html=1;align=center;verticalAlign=middle;resizable=0;points=[];autosize=1;strokeColor=none;fillColor=none;" parent="1" vertex="1">
          <mxGeometry x="235" y="770" width="50" height="30" as="geometry" />
        </mxCell>
        <mxCell id="e6sotbN7k-MOho8otLU--506" value="" style="ellipse;whiteSpace=wrap;html=1;aspect=fixed;fillColor=#a20025;fontColor=#ffffff;strokeColor=#6F0000;" parent="1" vertex="1">
          <mxGeometry x="280" y="960" width="80" height="80" as="geometry" />
        </mxCell>
        <mxCell id="e6sotbN7k-MOho8otLU--508" value="≠&amp;nbsp;digit" style="text;html=1;align=center;verticalAlign=middle;resizable=0;points=[];autosize=1;strokeColor=none;fillColor=none;" parent="1" vertex="1">
          <mxGeometry x="325" y="900" width="60" height="30" as="geometry" />
        </mxCell>
        <mxCell id="e6sotbN7k-MOho8otLU--514" style="edgeStyle=orthogonalEdgeStyle;rounded=0;orthogonalLoop=1;jettySize=auto;html=1;entryX=0;entryY=0.5;entryDx=0;entryDy=0;" parent="1" source="e6sotbN7k-MOho8otLU--509" target="e6sotbN7k-MOho8otLU--513" edge="1">
          <mxGeometry relative="1" as="geometry" />
        </mxCell>
        <mxCell id="e6sotbN7k-MOho8otLU--509" value="" style="ellipse;whiteSpace=wrap;html=1;aspect=fixed;" parent="1" vertex="1">
          <mxGeometry x="440" y="800" width="80" height="80" as="geometry" />
        </mxCell>
        <mxCell id="e6sotbN7k-MOho8otLU--511" value="" style="curved=1;endArrow=classic;html=1;exitX=1;exitY=0.5;exitDx=0;exitDy=0;entryX=0.5;entryY=0;entryDx=0;entryDy=0;" parent="1" edge="1">
          <mxGeometry width="50" height="50" relative="1" as="geometry">
            <mxPoint x="521" y="841" as="sourcePoint" />
            <mxPoint x="481" y="801" as="targetPoint" />
            <Array as="points">
              <mxPoint x="540" y="790" />
              <mxPoint x="530" y="770" />
              <mxPoint x="510" y="770" />
            </Array>
          </mxGeometry>
        </mxCell>
        <mxCell id="e6sotbN7k-MOho8otLU--512" value="digit" style="text;html=1;align=center;verticalAlign=middle;resizable=0;points=[];autosize=1;strokeColor=none;fillColor=none;" parent="1" vertex="1">
          <mxGeometry x="520" y="740" width="50" height="30" as="geometry" />
        </mxCell>
        <mxCell id="e6sotbN7k-MOho8otLU--513" value="" style="ellipse;whiteSpace=wrap;html=1;aspect=fixed;fillColor=#60a917;fontColor=#ffffff;strokeColor=#2D7600;" parent="1" vertex="1">
          <mxGeometry x="600" y="800" width="80" height="80" as="geometry" />
        </mxCell>
        <mxCell id="e6sotbN7k-MOho8otLU--515" value="&lt;h4&gt;&lt;font style=&quot;font-size: 21px&quot;&gt;const float&lt;/font&gt;&lt;/h4&gt;" style="text;html=1;strokeColor=none;fillColor=none;align=center;verticalAlign=middle;whiteSpace=wrap;rounded=0;" parent="1" vertex="1">
          <mxGeometry x="690" y="825" width="120" height="30" as="geometry" />
        </mxCell>
        <mxCell id="e6sotbN7k-MOho8otLU--516" value="digit" style="text;html=1;align=center;verticalAlign=middle;resizable=0;points=[];autosize=1;strokeColor=none;fillColor=none;" parent="1" vertex="1">
          <mxGeometry x="370" y="800" width="50" height="30" as="geometry" />
        </mxCell>
      </root>
    </mxGraphModel>
  </diagram>
</mxfile>
